<svg width="14" height="8" viewBox="0 0 14 8" fill="none" xmlns="http://www.w3.org/2000/svg">
<path d="M13.6919 6.92524L7.44194 0.675237C7.32473 0.558032 7.16576 0.492188 7 0.492188C6.83425 0.492188 6.67528 0.558032 6.55807 0.675237L0.308071 6.92524C0.220659 7.01264 0.16113 7.12401 0.137012 7.24524C0.112893 7.36648 0.125269 7.49215 0.172574 7.60635C0.219878 7.72056 0.299987 7.81817 0.402769 7.88684C0.505551 7.95552 0.62639 7.99217 0.750003 7.99217H13.25C13.3736 7.99217 13.4945 7.95552 13.5972 7.88684C13.7 7.81817 13.7801 7.72056 13.8274 7.60635C13.8747 7.49215 13.8871 7.36648 13.863 7.24524C13.8389 7.12401 13.7793 7.01264 13.6919 6.92524Z" fill="#27AE60"/>
</svg>
