<svg width="12" height="22" viewBox="0 0 12 22" fill="none" xmlns="http://www.w3.org/2000/svg">
<path d="M11.3827 0.0760941C11.2 0.00043001 10.9989 -0.0193646 10.8049 0.0192127C10.611 0.05779 10.4328 0.153007 10.2929 0.292829L0.292923 10.2928C0.200055 10.3857 0.126388 10.4959 0.076128 10.6173C0.0258682 10.7386 0 10.8687 0 11C0 11.1313 0.0258682 11.2614 0.076128 11.3827C0.126388 11.504 0.200055 11.6143 0.292923 11.7071L10.2929 21.7071C10.4328 21.847 10.611 21.9422 10.8049 21.9808C10.9989 22.0194 11.2 21.9996 11.3827 21.9239C11.5654 21.8482 11.7216 21.72 11.8315 21.5555C11.9414 21.3911 12 21.1978 12 21V0.999983C12 0.802203 11.9414 0.608867 11.8315 0.444418C11.7216 0.279969 11.5654 0.151792 11.3827 0.0760941Z" fill="#BDBDBD"/>
</svg>
