<svg width="14" height="9" viewBox="0 0 14 9" fill="none" xmlns="http://www.w3.org/2000/svg">
<path d="M13.6919 1.84429L7.44194 8.09429C7.32473 8.2115 7.16576 8.27734 7 8.27734C6.83425 8.27734 6.67528 8.2115 6.55807 8.09429L0.308071 1.84429C0.220659 1.75689 0.16113 1.64553 0.137012 1.52429C0.112893 1.40305 0.125269 1.27738 0.172574 1.16318C0.219878 1.04897 0.299987 0.951362 0.402769 0.882687C0.505551 0.814012 0.62639 0.777358 0.750003 0.777362L13.25 0.777362C13.3736 0.777358 13.4945 0.814012 13.5972 0.882687C13.7 0.951362 13.7801 1.04897 13.8274 1.16318C13.8747 1.27738 13.8871 1.40305 13.863 1.52429C13.8389 1.64553 13.7793 1.75689 13.6919 1.84429Z" fill="#E01D1D"/>
</svg>
