<svg width="76" height="76" viewBox="0 0 76 76" fill="none" xmlns="http://www.w3.org/2000/svg">
<circle cx="38" cy="37.6055" r="28.125" fill="#9FD1FF" fill-opacity="0.25"/>
<path d="M38 65.7305C44.5069 65.7305 50.8124 63.4743 55.8423 59.3464C60.8722 55.2185 64.3152 49.4742 65.5846 43.0924C66.854 36.7105 65.8714 30.086 62.804 24.3474C59.7367 18.6089 54.7745 14.1114 48.763 11.6214C42.7514 9.13129 36.0624 8.80268 29.8357 10.6915C23.6091 12.5804 18.2299 16.5698 14.6149 21.9801C10.9999 27.3903 9.37265 33.8867 10.0104 40.3622C10.6482 46.8377 13.5116 52.8918 18.1126 57.4928" stroke="#000022" stroke-width="2" stroke-linecap="round"/>
<path d="M50.5 31.3555L36.277 48.423C35.6215 49.2097 35.2937 49.603 34.8531 49.623C34.4125 49.643 34.0505 49.281 33.3264 48.5569L25.5 40.7305" stroke="#000022" stroke-width="2" stroke-linecap="round"/>
</svg>
