<svg width="20" height="20" viewBox="0 0 20 20" fill="none" xmlns="http://www.w3.org/2000/svg">
<circle cx="9.75" cy="9.75" r="9.75" fill="#E01D1D"/>
<path d="M10.6189 9.9998L14.247 6.37165C14.329 6.28959 14.375 6.17834 14.375 6.06235C14.3749 5.94637 14.3289 5.83515 14.2468 5.75314C14.1648 5.67113 14.0536 5.62504 13.9376 5.625C13.8216 5.62496 13.7104 5.67098 13.6283 5.75294L10.0002 9.38109L6.37204 5.75294C6.28997 5.67098 6.17872 5.62496 6.06274 5.625C5.94676 5.62504 5.83554 5.67113 5.75353 5.75314C5.67151 5.83515 5.62542 5.94637 5.62539 6.06235C5.62535 6.17834 5.67137 6.28959 5.75333 6.37165L9.38148 9.9998L5.75333 13.6279C5.71267 13.6686 5.6804 13.7168 5.65838 13.7699C5.63636 13.823 5.62502 13.8799 5.625 13.9374C5.62498 13.9948 5.63629 14.0517 5.65828 14.1048C5.68026 14.158 5.7125 14.2062 5.75314 14.2468C5.79378 14.2875 5.84203 14.3197 5.89513 14.3417C5.94824 14.3637 6.00515 14.375 6.06263 14.375C6.1201 14.375 6.17701 14.3636 6.2301 14.3416C6.28319 14.3196 6.33142 14.2873 6.37204 14.2467L10.0002 10.6185L13.6283 14.2467C13.7104 14.3286 13.8216 14.3746 13.9376 14.3746C14.0536 14.3746 14.1648 14.3285 14.2468 14.2465C14.3289 14.1644 14.3749 14.0532 14.375 13.9372C14.375 13.8213 14.329 13.71 14.247 13.6279L10.6189 9.9998Z" fill="white"/>
</svg>
