<svg width="21" height="16" viewBox="0 0 21 16" fill="none" xmlns="http://www.w3.org/2000/svg">
<path d="M20.2416 7.34277L20.2417 7.34291C20.6518 7.75623 20.6516 8.42507 20.2419 8.84132L20.2416 8.84161L13.2885 15.7947L13.2761 15.8071L13.2587 15.8091L11.1289 16.0464C11.1287 16.0464 11.1284 16.0465 11.1281 16.0465C11.1031 16.05 11.0815 16.05 11.0606 16.05H11.0594C10.7019 16.05 10.4157 15.7402 10.4566 15.3757M20.2416 7.34277L10.5062 15.3813M20.2416 7.34277L19.1572 6.25839C18.9505 6.05167 18.6813 5.95 18.4094 5.95C18.1406 5.95 17.8683 6.05161 17.6615 6.25839L17.6969 6.29375M20.2416 7.34277L20.2062 7.37813M10.4566 15.3757L10.5062 15.3813M10.4566 15.3757L10.4566 15.3757L10.5062 15.3813M10.4566 15.3757L10.6941 13.2445L10.696 13.227L10.7084 13.2147L17.6615 6.2584L17.6969 6.29375M10.5062 15.3813L10.7437 13.25L17.6969 6.29375M17.6969 6.29375C17.8937 6.09687 18.1531 6 18.4094 6C18.6687 6 18.925 6.09687 19.1219 6.29375L20.2062 7.37813M20.2062 7.37813C20.5969 7.77188 20.5969 8.40937 20.2062 8.80625V7.37813ZM4.70007 8.95312C2.35364 8.94996 0.45 10.8536 0.45 13.2V14.5C0.45 15.3557 1.14426 16.05 2 16.05H9.60937H9.68175L9.65614 15.9823C9.57102 15.7574 9.53197 15.5154 9.55904 15.2745C9.55905 15.2745 9.55905 15.2744 9.55906 15.2743L9.59029 15.0058L9.59677 14.95H9.54062H2C1.75261 14.95 1.55 14.7474 1.55 14.5V13.2C1.55 11.462 2.96199 10.05 4.7 10.05C4.84645 10.05 4.9943 10.0799 5.16053 10.1263C5.25076 10.1515 5.34304 10.1805 5.44252 10.2117C5.52962 10.2391 5.62223 10.2682 5.72382 10.298C6.1533 10.4239 6.70502 10.55 7.5 10.55C8.29343 10.55 8.84514 10.4239 9.275 10.298C9.37644 10.2683 9.469 10.2392 9.55607 10.2119C9.6559 10.1806 9.74851 10.1515 9.83901 10.1263C10.0055 10.0799 10.1535 10.05 10.3 10.05C10.9365 10.05 11.5271 10.2437 12.0225 10.5699L12.0565 10.5923L12.0854 10.5635L12.7979 9.85098L12.8392 9.80967L12.792 9.77524C12.0903 9.26319 11.2332 8.95312 10.3 8.95312C9.89862 8.95312 9.58743 9.05165 9.24658 9.15957C9.1987 9.17473 9.15023 9.19008 9.10084 9.20536C8.6998 9.32947 8.22925 9.45312 7.5 9.45312C6.77076 9.45312 6.30099 9.32948 5.90034 9.20536C5.85133 9.19018 5.80322 9.17494 5.75569 9.15988C5.4147 9.05184 5.10317 8.95314 4.70007 8.95312ZM4.70007 8.95312L4.7 9.00313M4.70007 8.95312C4.70004 8.95312 4.70002 8.95312 4.7 8.95312V9.00313M4.7 9.00313C5.09494 9.00313 5.39901 9.09941 5.74029 9.20747C6.17673 9.34566 6.67401 9.50313 7.5 9.50313C8.32661 9.50313 8.82501 9.34542 9.262 9.20715C9.60312 9.09922 9.90681 9.00313 10.3 9.00313C11.2038 9.00313 12.0354 9.29745 12.7214 9.786L9.50937 15.2688C9.48326 15.5008 9.5164 15.7329 9.59129 15.95H9.60937V16L9.56261 16.0177C9.56038 16.0118 9.55818 16.0059 9.55602 16H2C1.17187 16 0.5 15.3281 0.5 14.5V13.2C0.5 10.8813 2.38125 9 4.7 9.00313ZM7.5 8.05C9.73699 8.05 11.55 6.23699 11.55 4C11.55 1.76301 9.73699 -0.05 7.5 -0.05C5.26301 -0.05 3.45 1.76301 3.45 4C3.45 6.23699 5.26301 8.05 7.5 8.05ZM7.5 1.05C9.12551 1.05 10.45 2.37449 10.45 4C10.45 5.62551 9.12551 6.95 7.5 6.95C5.87449 6.95 4.55 5.62551 4.55 4C4.55 2.37449 5.87449 1.05 7.5 1.05ZM17.623 9.9L12.7676 14.7554L11.616 14.887L11.7446 13.7323L16.6 8.87696L17.623 9.9ZM18.4 9.12309L17.377 8.1L18.4092 7.06771L19.4294 8.09667L18.4 9.12309Z" fill="#828282" stroke="#828282" stroke-width="0.1"/>
</svg>
