<svg width="243" height="227" viewBox="0 0 243 227" fill="none" xmlns="http://www.w3.org/2000/svg">
<path fill-rule="evenodd" clip-rule="evenodd" d="M89.6435 -94.49C55.1456 -73.9308 0.717601 -58.1503 0.416895 -17.9919C0.0903853 25.614 69.9969 34.9286 88.3783 74.4724C104.233 108.58 71.8245 154.36 94.4864 184.38C117.98 215.5 163.493 233.262 201.421 224.216C238.858 215.286 247.227 165.05 277.127 140.816C306.6 116.928 349.019 114.334 373.133 85.0457C407.359 43.4786 450.005 -4.48543 440.383 -57.4627C430.73 -110.612 379.238 -153.334 327.202 -167.837C278.867 -181.308 233.682 -143.238 185.738 -128.435C152.464 -118.161 119.557 -112.317 89.6435 -94.49Z" fill="url(#paint0_linear_1456_3124)" fill-opacity="0.2"/>
<defs>
<linearGradient id="paint0_linear_1456_3124" x1="-397.698" y1="-47.17" x2="328.123" y2="128.935" gradientUnits="userSpaceOnUse">
<stop stop-color="#F2994A"/>
<stop offset="1" stop-color="#F2994A" stop-opacity="0"/>
</linearGradient>
</defs>
</svg>
