<svg width="187" height="238" viewBox="0 0 187 238" fill="none" xmlns="http://www.w3.org/2000/svg">
<path fill-rule="evenodd" clip-rule="evenodd" d="M87.8186 218.291C61.3286 248.478 31.5734 235.576 -7.9726 228.57C-50.9136 220.963 -19.2344 192.897 -54.7793 167.632C-85.4381 145.839 -119.051 148.186 -144.451 120.442C-170.783 91.681 -221.063 86.0776 -205.27 50.4241C-189.683 15.2327 -127.691 28.8787 -98.424 3.88159C-69.5741 -20.7593 -105.735 -93.6327 -72.5489 -112.022C-25.4496 -138.121 64.8285 -152.45 115.176 -133.355C165.687 -114.199 111.902 -3.58908 116.703 50.2187C121.162 100.201 205.633 115.166 182.358 159.623C166.206 190.476 110.789 192.115 87.8186 218.291Z" fill="url(#paint0_linear_1456_3193)" fill-opacity="0.2"/>
<defs>
<linearGradient id="paint0_linear_1456_3193" x1="-91.4959" y1="724.864" x2="-132.71" y2="-20.9201" gradientUnits="userSpaceOnUse">
<stop stop-color="#F2994A"/>
<stop offset="1" stop-color="#F2994A" stop-opacity="0"/>
</linearGradient>
</defs>
</svg>
