<svg width="96" height="97" viewBox="0 0 96 97" fill="none" xmlns="http://www.w3.org/2000/svg">
<path d="M11.478 77H84.8843V86.0293H11.478V77Z" fill="url(#paint0_linear_2840_26090)"/>
<path d="M0 85.8262V92.1602C0 93.6487 1.25925 94.8555 2.8125 94.8555H93.1875C94.7408 94.8555 96 93.6487 96 92.1602V85.8262H0Z" fill="url(#paint1_linear_2840_26090)"/>
<path fill-rule="evenodd" clip-rule="evenodd" d="M51.2444 55.872C53.1151 55.5008 54.0442 54.9231 54.0442 54.9231V51.2786H50.9834V51.2588H51.0179C52.7249 51.2588 55.4395 50.9918 57.2425 49.5054C58.404 48.5523 59.0141 47.2537 59.0652 45.649L58.2432 45.6254C59.9962 43.9679 61.1412 41.8795 61.1412 39.5248V21.9886C61.1412 20.076 60.7801 18.2884 60.172 16.7412L65.739 10.8451C65.739 10.8451 58.4116 0.192707 46.79 0.002271C35.1654 -0.186275 31.3042 11.4282 31.3042 11.4282L35.5764 16.2375C34.9865 17.1214 34.491 18.1048 34.1588 19.2476H38.3674V21.1026H33.7757C33.7045 21.5936 33.6584 22.1025 33.631 22.6318H38.3674V24.4867H33.5977V26.0173H38.3674V27.8716H33.5977V29.4026H38.3674V31.2571H33.5977V32.7877H38.3674V34.6427H33.5977V36.1718H38.3674V38.0268H33.5977V39.5267C33.5977 39.5371 33.6012 39.5465 33.6012 39.5574H38.3674V41.4119H33.8695C34.7385 44.6959 37.7694 47.3064 41.411 48.5776H43.1058V51.2817H41.8663V54.8627C41.8663 54.8627 42.8331 55.4734 44.7342 55.8623V76.9742H51.2444V55.872ZM50.9834 49.7478C52.4512 49.7516 54.7898 49.5484 56.231 48.3569C56.8655 47.8312 57.2503 47.1706 57.4131 46.3533C56.2229 47.2861 54.8312 48.0504 53.3281 48.5762H50.9834V49.7478ZM54.9548 24.1607V22.3057H42.3584V24.1607H54.9548ZM42.3584 18.9223V20.7773H54.9548V18.9223H42.3584ZM54.9548 27.5462V25.6913H42.3584V27.5462H54.9548ZM54.9548 30.9315V29.0766H42.3584V30.9315H54.9548ZM54.9548 34.3133V32.4583H42.3584V34.3133H54.9548ZM54.9548 37.6989V35.8439H42.3584V37.6989H54.9548ZM46.7922 10.1041C42.5354 10.0606 39.6935 11.9789 37.9752 13.7415C40.0986 12.1968 42.8159 11.4303 45.8086 11.4303H54.0464C54.3915 11.4303 54.7301 11.4828 55.0674 11.5591C53.179 10.7366 50.5452 10.1438 46.7922 10.1041ZM42.3584 39.2273V41.0823H54.9548V39.2273H42.3584Z" fill="url(#paint2_linear_2840_26090)"/>
<path fill-rule="evenodd" clip-rule="evenodd" d="M37.9752 13.7415C39.6935 11.9789 42.5354 10.0606 46.7922 10.1041C50.5452 10.1438 53.179 10.7366 55.0674 11.5591C54.7301 11.4828 54.3915 11.4303 54.0464 11.4303H45.8086C42.8159 11.4303 40.0986 12.1968 37.9752 13.7415Z" fill="url(#paint3_linear_2840_26090)"/>
<defs>
<linearGradient id="paint0_linear_2840_26090" x1="48.1812" y1="77" x2="48.1812" y2="86.0293" gradientUnits="userSpaceOnUse">
<stop offset="0.135417" stop-color="#323232"/>
<stop offset="1" stop-color="#171717"/>
</linearGradient>
<linearGradient id="paint1_linear_2840_26090" x1="48" y1="85.8262" x2="48" y2="94.8555" gradientUnits="userSpaceOnUse">
<stop offset="0.135417" stop-color="#323232"/>
<stop offset="1" stop-color="#171717"/>
</linearGradient>
<linearGradient id="paint2_linear_2840_26090" x1="36" y1="3.5" x2="61.5" y2="81.5" gradientUnits="userSpaceOnUse">
<stop offset="0.0301301" stop-color="#323232"/>
<stop offset="0.168073" stop-color="#171717"/>
<stop offset="0.822555" stop-color="#171717"/>
<stop offset="0.93636" stop-color="#323232"/>
</linearGradient>
<linearGradient id="paint3_linear_2840_26090" x1="36" y1="3.5" x2="61.5" y2="81.5" gradientUnits="userSpaceOnUse">
<stop offset="0.0301301" stop-color="#323232"/>
<stop offset="0.168073" stop-color="#171717"/>
<stop offset="0.822555" stop-color="#171717"/>
<stop offset="0.93636" stop-color="#323232"/>
</linearGradient>
</defs>
</svg>
