<svg width="56" height="56" viewBox="0 0 56 56" fill="none" xmlns="http://www.w3.org/2000/svg">
<circle cx="28" cy="28" r="28" fill="#EA7F1F"/>
<path d="M20.4309 28.8227L33.4309 37.8227C33.581 37.9265 33.7565 37.9873 33.9386 37.9984C34.1207 38.0096 34.3024 37.9708 34.464 37.8861C34.6256 37.8015 34.761 37.6742 34.8554 37.5181C34.9499 37.362 34.9999 37.1831 34.9999 37.0007V19.0007C35.0001 18.8181 34.9502 18.6391 34.8558 18.4828C34.7614 18.3266 34.6261 18.1992 34.4644 18.1144C34.3028 18.0296 34.121 17.9907 33.9389 18.0019C33.7567 18.013 33.581 18.0738 33.4309 18.1777L20.4309 27.1777C20.2985 27.2701 20.1903 27.3931 20.1156 27.5363C20.041 27.6795 20.002 27.8387 20.002 28.0002C20.002 28.1617 20.041 28.3208 20.1156 28.464C20.1903 28.6072 20.2985 28.7302 20.4309 28.8227Z" fill="black"/>
</svg>
