<svg width="21" height="21" viewBox="0 0 21 21" fill="none" xmlns="http://www.w3.org/2000/svg">
<path d="M19.1595 19.7705V12.5495H13.7966V8.91016H7.20319V11.151H1.84029V19.7705H0V21.0009H20.9996V19.7705H19.1595ZM7.20319 19.7704H3.07074V12.3815H7.20319V19.7704ZM12.5661 19.7704H8.43363V10.1406H12.5661L12.5661 19.7704ZM17.929 19.7704H13.7966V13.78H17.929V19.7704Z" fill="#828282"/>
<path d="M8.07809 7.45002L10.4987 6.66475L12.9194 7.45002L12.9206 4.90517L14.4154 2.84569L11.9955 2.05817L10.4987 0L9.00191 2.05813L6.58203 2.84565L8.07686 4.90513L8.07809 7.45002ZM9.76228 3.10462L10.4987 2.092L11.2351 3.10462L12.4257 3.49209L11.6902 4.5054L11.6896 5.7575L10.4987 5.37114L9.30767 5.7575L9.3071 4.5054L8.57158 3.49209L9.76228 3.10462Z" fill="#828282"/>
</svg>
