<svg width="21" height="21" viewBox="0 0 21 21" fill="none" xmlns="http://www.w3.org/2000/svg">
<path d="M2.16797 10.7897L1.3871 10.165L0.887344 10.7897L1.3871 11.4144L2.16797 10.7897ZM9.66797 11.7897C10.2203 11.7897 10.668 11.342 10.668 10.7897C10.668 10.2374 10.2203 9.78971 9.66797 9.78971V11.7897ZM4.72043 5.99835L1.3871 10.165L2.94884 11.4144L6.28217 7.24774L4.72043 5.99835ZM1.3871 11.4144L4.72043 15.5811L6.28217 14.3317L2.94884 10.165L1.3871 11.4144ZM2.16797 11.7897H9.66797V9.78971H2.16797V11.7897Z" fill="#F96060"/>
<path d="M9.36663 17.1219L8.63393 17.8025L9.36663 17.1219ZM9.24854 16.9825L10.0403 16.3717L9.24854 16.9825ZM17.8946 17.7588L17.2071 17.0327L17.8946 17.7588ZM17.6418 17.973L18.245 18.7706L17.6418 17.973ZM17.6418 3.60379L17.0385 4.40135L17.6418 3.60379ZM17.8946 3.818L17.2071 4.54415L17.8946 3.818ZM9.36535 4.45628L8.632 3.77642L9.36535 4.45628ZM9.24969 4.5928L8.45852 3.98121L9.24969 4.5928ZM17.832 9.31237V12.2644H19.832V9.31237H17.832ZM9.83203 7.56502V7.40239H7.83203V7.56502H9.83203ZM12.2309 17.0078C11.4621 16.8796 10.971 16.7962 10.6095 16.6916C10.2717 16.5939 10.1608 16.5076 10.0993 16.4414L8.63393 17.8025C9.03646 18.2359 9.53023 18.4614 10.0538 18.6129C10.5536 18.7574 11.1804 18.8603 11.9021 18.9806L12.2309 17.0078ZM7.83203 14.1767C7.83203 14.9081 7.83044 15.5432 7.89086 16.0598C7.95417 16.6011 8.09552 17.1251 8.45679 17.5934L10.0403 16.3717C9.98504 16.3001 9.91815 16.1765 9.87732 15.8275C9.83362 15.4539 9.83203 14.9559 9.83203 14.1767H7.83203ZM10.0993 16.4414C10.0786 16.4191 10.0589 16.3958 10.0403 16.3717L8.45679 17.5934C8.51262 17.6657 8.57173 17.7355 8.63393 17.8025L10.0993 16.4414ZM17.832 12.2644C17.832 13.8285 17.8299 14.9012 17.7236 15.6983C17.6205 16.4719 17.4381 16.8139 17.2071 17.0327L18.5822 18.485C19.2885 17.8162 19.5749 16.9466 19.7061 15.9627C19.8341 15.0024 19.832 13.7716 19.832 12.2644H17.832ZM11.9021 18.9806C13.3893 19.2284 14.6033 19.4329 15.5718 19.4645C16.5641 19.4969 17.4691 19.3574 18.245 18.7706L17.0385 17.1755C16.7848 17.3674 16.4174 17.491 15.6371 17.4656C14.833 17.4393 13.7742 17.265 12.2309 17.0078L11.9021 18.9806ZM17.2071 17.0327C17.1536 17.0833 17.0973 17.131 17.0385 17.1755L18.245 18.7706C18.3626 18.6817 18.4751 18.5863 18.5822 18.485L17.2071 17.0327ZM12.2324 4.5688C13.7752 4.31167 14.8336 4.13741 15.6374 4.1112C16.4175 4.08578 16.7848 4.20941 17.0385 4.40135L18.245 2.80624C17.4692 2.21943 16.5643 2.07992 15.5723 2.11227C14.604 2.14383 13.3903 2.34824 11.9036 2.59602L12.2324 4.5688ZM19.832 9.31237C19.832 7.80522 19.8341 6.57444 19.7061 5.61413C19.5749 4.63023 19.2885 3.76064 18.5822 3.09184L17.2071 4.54415C17.4381 4.7629 17.6205 5.10489 17.7236 5.87848C17.8299 6.67567 17.832 7.74831 17.832 9.31237H19.832ZM17.0385 4.40135C17.0973 4.44581 17.1536 4.49348 17.2071 4.54415L18.5822 3.09184C18.4751 2.9905 18.3626 2.89515 18.245 2.80624L17.0385 4.40135ZM11.9036 2.59602C11.1811 2.71644 10.5535 2.81942 10.0532 2.96424C9.52895 3.11597 9.03468 3.34206 8.632 3.77642L10.0987 5.13614C10.1603 5.0697 10.2712 4.98321 10.6092 4.88539C10.9711 4.78065 11.4627 4.6971 12.2324 4.5688L11.9036 2.59602ZM9.83203 7.40239C9.83203 6.62202 9.83363 6.12335 9.87745 5.74921C9.91838 5.39973 9.98545 5.27608 10.0409 5.2044L8.45852 3.98121C8.09627 4.44982 7.95451 4.97453 7.89103 5.51656C7.83043 6.03391 7.83203 6.66989 7.83203 7.40239H9.83203ZM8.632 3.77642C8.57115 3.84206 8.51327 3.91039 8.45852 3.98121L10.0409 5.2044C10.0591 5.1808 10.0784 5.15802 10.0987 5.13614L8.632 3.77642Z" fill="#F96060"/>
</svg>
