<svg width="17" height="16" viewBox="0 0 17 16" fill="none" xmlns="http://www.w3.org/2000/svg">
<path d="M4.73828 6.41571H0.988281C0.822521 6.41571 0.663551 6.34986 0.546341 6.23265C0.429131 6.11544 0.363283 5.95647 0.363281 5.79071V2.04071C0.363281 1.9171 0.399938 1.79626 0.468616 1.69347C0.537295 1.59069 0.63491 1.51058 0.749118 1.46328C0.863326 1.41597 0.988997 1.4036 1.11024 1.42772C1.23148 1.45184 1.34284 1.51137 1.43025 1.59878L2.86328 3.03181L3.19798 2.69711C4.60562 1.29265 6.51288 0.503906 8.50133 0.503906C10.4898 0.503906 12.397 1.29265 13.8047 2.69711C13.8628 2.75513 13.9089 2.82404 13.9403 2.89989C13.9718 2.97574 13.988 3.05705 13.988 3.13916C13.9881 3.22128 13.9719 3.3026 13.9405 3.37847C13.9091 3.45434 13.863 3.52327 13.805 3.58134C13.7469 3.6394 13.6779 3.68545 13.6021 3.71686C13.5262 3.74827 13.4449 3.76441 13.3628 3.76438C13.2806 3.76435 13.1993 3.74813 13.1235 3.71666C13.0477 3.68519 12.9787 3.63908 12.9207 3.58097C11.7477 2.41062 10.1583 1.75335 8.50133 1.75335C6.84431 1.75335 5.25495 2.41062 4.08192 3.58097L3.74719 3.91571L5.18025 5.34878C5.26764 5.4362 5.32715 5.54756 5.35126 5.6688C5.37536 5.79003 5.36298 5.91569 5.31568 6.02989C5.26837 6.14409 5.18827 6.24169 5.08549 6.31037C4.98272 6.37904 4.86189 6.4157 4.73828 6.41571ZM16.0144 9.58512H12.2644C12.1408 9.58513 12.0199 9.62179 11.9172 9.69046C11.8144 9.75914 11.7343 9.85675 11.687 9.97094C11.6397 10.0851 11.6273 10.2108 11.6514 10.332C11.6755 10.4533 11.735 10.5646 11.8224 10.6521L13.2555 12.0851L12.9207 12.4199C11.7477 13.5902 10.1583 14.2475 8.50132 14.2475C6.84431 14.2475 5.25495 13.5902 4.08192 12.4199C3.96468 12.3028 3.80576 12.237 3.64007 12.2371C3.47439 12.2372 3.3155 12.303 3.19834 12.4201C3.08118 12.5373 3.01533 12.6962 3.01526 12.8619C3.01519 13.0275 3.08091 13.1865 3.19798 13.3037C4.60562 14.7082 6.51288 15.4969 8.50132 15.4969C10.4898 15.4969 12.397 14.7082 13.8047 13.3037L14.1394 12.969L15.5724 14.4021C15.6598 14.4895 15.7712 14.549 15.8924 14.5731C16.0137 14.5972 16.1393 14.5849 16.2535 14.5376C16.3677 14.4903 16.4654 14.4101 16.534 14.3074C16.6027 14.2046 16.6394 14.0837 16.6394 13.9601V10.2101C16.6394 10.0444 16.5735 9.88539 16.4563 9.76818C16.3391 9.65097 16.1801 9.58512 16.0144 9.58512Z" fill="#000022"/>
</svg>
