<svg width="24" height="24" viewBox="0 0 24 24" fill="none" xmlns="http://www.w3.org/2000/svg">
<path d="M7.48437 10.0981H2.98437C2.78546 10.0981 2.5947 10.0191 2.45405 9.8784C2.3134 9.73775 2.23438 9.54699 2.23438 9.34808V4.84808C2.23437 4.69974 2.27836 4.55473 2.36078 4.43139C2.44319 4.30805 2.56033 4.21192 2.69738 4.15515C2.83443 4.09839 2.98523 4.08354 3.13072 4.11248C3.27621 4.14142 3.40985 4.21286 3.51474 4.31776L5.23437 6.03739L5.63602 5.63575C7.32518 3.9504 9.61389 3.00391 12 3.00391C14.3862 3.00391 16.6749 3.9504 18.364 5.63575C18.4338 5.70538 18.4891 5.78807 18.5268 5.87909C18.5646 5.97011 18.5841 6.06768 18.5841 6.16622C18.5841 6.26476 18.5647 6.36234 18.527 6.45338C18.4893 6.54442 18.4341 6.62715 18.3644 6.69682C18.2947 6.7665 18.212 6.82176 18.1209 6.85945C18.0299 6.89714 17.9323 6.91652 17.8338 6.91648C17.7352 6.91643 17.6377 6.89698 17.5466 6.85921C17.4556 6.82145 17.3729 6.76612 17.3033 6.69639C15.8957 5.29197 13.9885 4.50324 12 4.50324C10.0116 4.50324 8.10438 5.29197 6.69675 6.69639L6.29506 7.09808L8.01474 8.81776C8.11961 8.92266 8.19102 9.05629 8.21995 9.20177C8.24888 9.34726 8.23402 9.49805 8.17725 9.63509C8.12048 9.77212 8.02436 9.88925 7.90103 9.97166C7.7777 10.0541 7.6327 10.0981 7.48437 10.0981ZM21.0157 13.9014H16.5157C16.3674 13.9014 16.2224 13.9454 16.099 14.0278C15.9757 14.1102 15.8796 14.2273 15.8228 14.3644C15.766 14.5014 15.7512 14.6522 15.7801 14.7977C15.809 14.9431 15.8805 15.0768 15.9853 15.1817L17.705 16.9014L17.3033 17.303C15.8957 18.7075 13.9884 19.4962 12 19.4962C10.0116 19.4962 8.10437 18.7075 6.69674 17.303C6.55606 17.1626 6.36535 17.0837 6.16653 17.0837C5.9677 17.0838 5.77704 17.1628 5.63645 17.3034C5.49586 17.444 5.41683 17.6346 5.41675 17.8334C5.41667 18.0323 5.49554 18.223 5.63601 18.3637C7.32519 20.049 9.61389 20.9955 12 20.9955C14.3862 20.9955 16.6749 20.049 18.364 18.3637L18.7657 17.962L20.4853 19.6817C20.5902 19.7866 20.7238 19.858 20.8693 19.887C21.0148 19.9159 21.1656 19.9011 21.3027 19.8443C21.4397 19.7875 21.5569 19.6914 21.6393 19.568C21.7217 19.4447 21.7657 19.2997 21.7657 19.1514V14.6514C21.7657 14.4524 21.6867 14.2617 21.546 14.121C21.4054 13.9804 21.2146 13.9014 21.0157 13.9014Z" fill="white"/>
</svg>
