<svg width="211" height="169" viewBox="0 0 211 169" fill="none" xmlns="http://www.w3.org/2000/svg">
<g opacity="0.2">
<path d="M21.4623 130.699C21.9463 131.343 22.2285 132.116 22.2731 132.921C22.3177 133.725 22.1229 134.525 21.7131 135.218C21.3033 135.912 20.6971 136.469 19.971 136.818C19.2449 137.167 18.4316 137.293 17.6338 137.18C16.8361 137.067 16.0898 136.72 15.4893 136.183C14.8888 135.646 14.461 134.943 14.26 134.162C14.0591 133.382 14.094 132.56 14.3603 131.799C14.6267 131.039 15.1125 130.375 15.7564 129.89C16.621 129.243 17.7069 128.965 18.7763 129.116C19.8456 129.268 20.8114 129.837 21.4623 130.699Z" fill="#263238"/>
<path d="M20.1734 129.971C20.1113 130.211 15.9557 129.108 11.2097 126.867C6.46361 124.625 2.73732 122.759 2.79851 122.608C2.85969 122.456 6.90141 123.843 11.6068 126.081C16.3121 128.319 20.2603 129.76 20.1734 129.971Z" fill="#263238"/>
<path d="M6.07562 114.479C6.30105 114.403 6.87894 116.621 5.93118 119.163C4.98341 121.705 3.12303 123.039 3.02258 122.86C2.92214 122.68 4.27643 121.192 5.10779 118.886C5.93914 116.58 5.80687 114.504 6.07562 114.479Z" fill="#263238"/>
<path d="M9.79019 116.48C10.018 116.377 10.6871 118.569 9.58601 120.988C8.48494 123.407 6.41866 124.361 6.35011 124.129C6.28157 123.898 7.83058 122.762 8.77095 120.616C9.71132 118.47 9.53382 116.519 9.79019 116.48Z" fill="#263238"/>
<path d="M207.824 52.0572C208.308 52.7013 208.59 53.4745 208.634 54.2789C208.679 55.0834 208.484 55.883 208.074 56.5767C207.665 57.2704 207.058 57.827 206.332 58.1762C205.606 58.5254 204.793 58.6515 203.995 58.5384C203.197 58.4254 202.451 58.0784 201.851 57.5413C201.25 57.0041 200.822 56.301 200.621 55.5208C200.42 54.7406 200.455 53.9183 200.722 53.1579C200.988 52.3975 201.474 51.7331 202.118 51.2488C202.544 50.9247 203.031 50.6883 203.55 50.5534C204.068 50.4185 204.609 50.3878 205.139 50.4629C205.67 50.5381 206.18 50.7177 206.641 50.9914C207.102 51.265 207.504 51.6273 207.824 52.0572Z" fill="#263238"/>
<path d="M206.547 51.329C206.471 51.5685 202.329 50.4666 197.583 48.2248C192.837 45.9829 189.068 44.1412 189.172 43.9658C189.276 43.7903 193.269 45.1935 197.98 47.4392C202.692 49.6849 206.615 51.0957 206.547 51.329Z" fill="#263238"/>
<path d="M192.443 35.831C192.669 35.7551 193.253 37.9804 192.305 40.5224C191.357 43.0645 189.49 44.391 189.396 44.2187C189.302 44.0463 190.656 42.5586 191.481 40.2451C192.307 37.9315 192.181 35.8627 192.443 35.831Z" fill="#263238"/>
<path d="M196.164 37.8395C196.378 37.7352 197.061 39.9281 195.954 42.34C194.846 44.7518 192.792 45.7201 192.724 45.4885C192.655 45.2568 194.204 44.1212 195.131 41.9738C196.058 39.8265 195.901 37.8711 196.164 37.8395Z" fill="#263238"/>
<path d="M52.9786 114.89C52.8546 116.057 52.3873 117.161 51.6359 118.062C50.8845 118.963 49.8827 119.621 48.7573 119.953C47.6318 120.285 46.4331 120.276 45.3129 119.927C44.1927 119.577 43.2012 118.904 42.4638 117.991C41.7264 117.078 41.2763 115.967 41.1703 114.799C41.0643 113.63 41.3073 112.456 41.8684 111.426C42.4295 110.395 43.2837 109.554 44.3228 109.009C45.3619 108.464 46.5393 108.239 47.7061 108.363C49.2697 108.532 50.7027 109.314 51.691 110.537C52.6793 111.76 53.1423 113.326 52.9786 114.89Z" fill="#263238"/>
<path d="M52.3019 112.793C51.8108 113.092 48.3268 107.843 45.4855 100.723C42.6442 93.6033 40.6187 87.8606 41.0977 87.6224C41.5766 87.3841 44.5879 92.8783 47.3932 99.9405C50.1986 107.003 52.8042 112.523 52.3019 112.793Z" fill="#263238"/>
<path d="M59.9778 83.9813C60.3315 84.3131 57.0678 88.0055 51.2734 89.6847C48.823 90.4468 46.2093 90.5156 43.7221 89.8834C41.788 89.3308 40.9204 88.3112 41.0875 88.1208C41.2546 87.9304 42.3042 88.3575 44.005 88.452C46.2717 88.6033 48.5472 88.3468 50.7234 87.6949C55.9105 86.2359 59.5853 83.4683 59.9778 83.9813Z" fill="#263238"/>
<path d="M71.835 111.219C71.7114 112.388 71.2437 113.494 70.4913 114.398C69.7389 115.301 68.7355 115.961 67.608 116.293C66.4806 116.626 65.2797 116.617 64.1574 116.267C63.0351 115.918 62.0417 115.243 61.303 114.328C60.5642 113.414 60.1133 112.301 60.0072 111.13C59.9012 109.959 60.1447 108.784 60.7071 107.751C61.2695 106.719 62.1254 105.877 63.1666 105.331C64.2078 104.785 65.3875 104.56 66.5564 104.685C68.1226 104.852 69.5583 105.635 70.5481 106.86C71.5378 108.085 72.0007 109.653 71.835 111.219Z" fill="#263238"/>
<path d="M71.1805 109.165C70.6967 109.458 67.2127 104.209 64.3652 97.0818C61.5178 89.9543 59.5294 84.2559 59.9774 83.9807C60.4254 83.7056 63.4738 89.2441 66.273 96.2989C69.0721 103.354 71.6716 108.867 71.1805 109.165Z" fill="#263238"/>
<path d="M61.6573 87.6768C62.0948 87.9886 59.1877 91.7465 53.8325 93.4848C48.4774 95.223 43.9169 93.9819 44.0781 93.4696C44.2393 92.9573 48.392 93.1577 53.1839 91.5273C57.9759 89.8969 61.2379 87.2366 61.6573 87.6768Z" fill="#263238"/>
<path d="M148.686 41.0897C149.11 41.8724 149.291 42.7631 149.208 43.6492C149.125 44.5353 148.781 45.3768 148.22 46.0673C147.659 46.7578 146.905 47.2663 146.054 47.5283C145.204 47.7904 144.295 47.7942 143.442 47.5394C142.59 47.2846 141.832 46.7826 141.264 46.0968C140.697 45.4111 140.346 44.5725 140.256 43.6872C140.165 42.8019 140.339 41.9096 140.756 41.1233C141.173 40.337 141.814 39.6921 142.597 39.27C143.116 38.989 143.686 38.8131 144.273 38.7524C144.86 38.6918 145.453 38.7476 146.019 38.9166C146.585 39.0856 147.111 39.3646 147.569 39.7375C148.027 40.1104 148.406 40.5699 148.686 41.0897Z" fill="#263238"/>
<path d="M147.379 40.1004C147.2 40.5017 142.777 38.7053 137.943 35.4438C133.108 32.1824 129.407 29.4921 129.602 29.14C129.796 28.788 134.032 30.9303 138.817 34.1327C143.601 37.3351 147.56 39.7471 147.379 40.1004Z" fill="#263238"/>
<path d="M139.865 18.8213C140.223 18.8732 139.766 22.6001 136.862 26.0916C135.659 27.6162 134.057 28.7772 132.233 29.4455C130.789 29.9272 129.814 29.6639 129.831 29.4739C129.848 29.284 130.657 29.0952 131.796 28.4295C133.275 27.5603 134.585 26.4317 135.664 25.0977C138.283 21.9708 139.4 18.6711 139.865 18.8213Z" fill="#263238"/>
<path d="M158.895 30.781C159.315 31.5626 159.494 32.4514 159.41 33.3349C159.325 34.2184 158.98 35.0569 158.419 35.7445C157.858 36.432 157.105 36.9378 156.257 37.1978C155.408 37.4578 154.502 37.4603 153.652 37.2051C152.801 36.9499 152.046 36.4484 151.481 35.764C150.916 35.0796 150.567 34.243 150.477 33.36C150.387 32.477 150.561 31.5873 150.977 30.8032C151.393 30.0192 152.032 29.376 152.814 28.9551C153.333 28.6755 153.902 28.5008 154.489 28.4413C155.075 28.3817 155.668 28.4383 156.233 28.6078C156.797 28.7774 157.323 29.0566 157.78 29.4295C158.237 29.8023 158.616 30.2616 158.895 30.781Z" fill="#263238"/>
<path d="M157.617 29.7661C157.446 30.1613 153.023 28.3648 148.181 25.1096C143.339 21.8543 139.652 19.1517 139.847 18.7996C140.042 18.4475 144.278 20.5899 149.062 23.7923C153.847 26.9947 157.802 29.3722 157.617 29.7661Z" fill="#263238"/>
<path d="M142.495 20.413C142.897 20.4278 142.691 24.0194 140.085 27.3867C137.479 30.754 134.101 31.9274 133.985 31.5344C133.869 31.1414 136.543 29.5028 138.849 26.4373C141.155 23.3719 142.038 20.3183 142.495 20.413Z" fill="#263238"/>
<path d="M186.759 11.0214C186.654 11.34 186.457 11.6204 186.193 11.8271C185.929 12.0337 185.609 12.1573 185.275 12.1822C184.94 12.2072 184.606 12.1323 184.314 11.9671C184.022 11.8019 183.786 11.5538 183.635 11.2543C183.484 10.9547 183.425 10.6171 183.466 10.2842C183.508 9.9513 183.646 9.63806 183.866 9.38415C184.085 9.13024 184.374 8.94708 184.698 8.85782C185.021 8.76856 185.364 8.77723 185.682 8.88274C186.108 9.02394 186.461 9.32842 186.663 9.72936C186.865 10.1303 186.899 10.5949 186.759 11.0214Z" fill="#263238"/>
<path d="M186.702 10.4143C186.546 10.4691 185.894 8.79153 185.531 6.61983C185.226 5.33541 185.08 4.01849 185.095 2.6985C185.263 2.65851 185.754 4.3834 186.114 6.52059C186.426 7.79816 186.623 9.10137 186.702 10.4143Z" fill="#263238"/>
<path d="M190.596 2.82552C189.92 3.37728 189.105 3.73133 188.241 3.84851C187.376 3.96569 186.496 3.84143 185.698 3.48947C185.195 3.21974 185.013 2.88243 185.064 2.83911C185.116 2.79578 185.388 2.97003 185.868 3.10788C186.488 3.28752 187.135 3.3536 187.779 3.30292C189.319 3.20562 190.515 2.65436 190.596 2.82552Z" fill="#263238"/>
<path d="M192.258 11.1483C192.153 11.467 191.956 11.7474 191.692 11.954C191.428 12.1606 191.108 12.2842 190.774 12.3092C190.439 12.3341 190.105 12.2593 189.813 12.0941C189.521 11.9289 189.285 11.6808 189.134 11.3812C188.983 11.0816 188.924 10.744 188.965 10.4111C189.007 10.0782 189.145 9.76503 189.365 9.51112C189.584 9.25722 189.873 9.07403 190.197 8.98477C190.52 8.89552 190.863 8.90419 191.181 9.0097C191.606 9.15305 191.957 9.45784 192.158 9.85809C192.36 10.2583 192.396 10.7219 192.258 11.1483Z" fill="#263238"/>
<path d="M192.201 10.5413C192.046 10.596 191.387 8.91112 191.022 6.75298C190.717 5.46659 190.574 4.14729 190.594 2.82544C190.762 2.78546 191.253 4.51036 191.605 6.65374C191.915 7.93013 192.114 9.23077 192.201 10.5413Z" fill="#263238"/>
<path d="M190.838 3.95439C190.522 4.31714 190.133 4.60819 189.695 4.808C189.258 5.00781 188.783 5.11176 188.302 5.11287C186.701 5.28682 185.499 4.64808 185.579 4.51834C185.659 4.38861 186.801 4.68718 188.238 4.52608C189.674 4.36498 190.747 3.81656 190.838 3.95439Z" fill="#263238"/>
<path d="M66.8499 162.651C66.9981 163.379 66.9264 164.135 66.6439 164.822C66.3615 165.509 65.881 166.097 65.2637 166.511C64.6463 166.924 63.9199 167.145 63.1769 167.144C62.4338 167.144 61.7076 166.923 61.0906 166.509C60.4737 166.095 59.9937 165.506 59.7119 164.819C59.4301 164.131 59.3591 163.375 59.5079 162.647C59.6567 161.919 60.0187 161.252 60.5477 160.73C61.0768 160.209 61.749 159.856 62.479 159.717C63.447 159.533 64.4484 159.738 65.2665 160.287C66.0846 160.836 66.6534 161.685 66.8499 162.651Z" fill="#263238"/>
<path d="M66.0658 161.536C65.8298 161.809 62.7342 159.302 59.6914 155.569C56.6486 151.836 54.3354 148.748 54.5863 148.537C54.8372 148.327 57.6894 151.038 60.6876 154.733C63.6859 158.428 66.3005 161.276 66.0658 161.536Z" fill="#263238"/>
<path d="M65.2405 142.731C65.5159 142.864 64.2398 145.719 61.0759 147.807C59.7488 148.736 58.1883 149.274 56.571 149.36C55.3256 149.374 54.5905 148.947 54.6443 148.802C54.6981 148.656 55.4049 148.704 56.4671 148.442C57.8607 148.111 59.1817 147.527 60.3646 146.719C63.221 144.864 64.9055 142.496 65.2405 142.731Z" fill="#263238"/>
<path d="M77.5272 156.888C77.6745 157.615 77.6029 158.369 77.3214 159.055C77.0398 159.741 76.5611 160.328 75.9458 160.741C75.3305 161.155 74.6063 161.377 73.8648 161.379C73.1233 161.381 72.398 161.162 71.7806 160.752C71.1632 160.341 70.6815 159.757 70.3965 159.072C70.1115 158.388 70.0361 157.634 70.1797 156.907C70.3233 156.179 70.6795 155.511 71.2033 154.986C71.727 154.461 72.3947 154.103 73.1218 153.958C74.0944 153.764 75.1043 153.963 75.9301 154.513C76.7559 155.062 77.3302 155.916 77.5272 156.888Z" fill="#263238"/>
<path d="M76.765 155.768C76.5291 156.042 73.4334 153.534 70.3906 149.801C67.3478 146.068 65.0346 142.98 65.2929 142.763C65.5512 142.547 68.3886 145.271 71.3869 148.966C74.3851 152.661 76.9861 155.507 76.765 155.768Z" fill="#263238"/>
<path d="M66.9595 144.646C67.278 144.756 66.2385 147.563 63.3433 149.627C60.4481 151.69 57.4716 151.798 57.4669 151.463C57.4621 151.127 60.0028 150.455 62.5816 148.569C65.1605 146.682 66.6136 144.458 66.9595 144.646Z" fill="#263238"/>
</g>
</svg>
