<svg width="211" height="170" viewBox="0 0 211 170" fill="none" xmlns="http://www.w3.org/2000/svg">
<g opacity="0.2">
<path d="M21.6771 131.295C22.1612 131.939 22.4433 132.712 22.488 133.516C22.5326 134.321 22.3377 135.12 21.9279 135.814C21.5182 136.508 20.9119 137.064 20.1858 137.414C19.4597 137.763 18.6464 137.889 17.8487 137.776C17.051 137.663 16.3047 137.316 15.7041 136.779C15.1036 136.241 14.6758 135.538 14.4749 134.758C14.2739 133.978 14.3088 133.156 14.5752 132.395C14.8415 131.635 15.3273 130.97 15.9712 130.486C16.8359 129.839 17.9217 129.561 18.9911 129.712C20.0605 129.864 21.0263 130.433 21.6771 131.295Z" fill="#263238"/>
<path d="M20.3882 130.567C20.3261 130.807 16.1706 129.704 11.4245 127.462C6.67846 125.22 2.95217 123.355 3.01335 123.203C3.07453 123.051 7.11626 124.438 11.8216 126.677C16.527 128.915 20.4751 130.355 20.3882 130.567Z" fill="#263238"/>
<path d="M6.29047 115.075C6.5159 114.999 7.09379 117.217 6.14602 119.759C5.19826 122.301 3.33788 123.635 3.23743 123.455C3.13698 123.276 4.49128 121.788 5.32263 119.482C6.15398 117.176 6.02171 115.099 6.29047 115.075Z" fill="#263238"/>
<path d="M10.005 117.076C10.2329 116.973 10.9019 119.165 9.80085 121.584C8.69979 124.003 6.63351 124.956 6.56496 124.725C6.49641 124.493 8.04542 123.358 8.98579 121.211C9.92616 119.065 9.74866 117.115 10.005 117.076Z" fill="#263238"/>
<path d="M208.038 52.6529C208.522 53.297 208.805 54.0702 208.849 54.8746C208.894 55.6791 208.699 56.4787 208.289 57.1724C207.879 57.8661 207.273 58.4227 206.547 58.7719C205.821 59.1211 205.008 59.2472 204.21 59.1341C203.412 59.0211 202.666 58.6741 202.065 58.137C201.465 57.5998 201.037 56.8967 200.836 56.1165C200.635 55.3363 200.67 54.514 200.937 53.7536C201.203 52.9932 201.689 52.3289 202.333 51.8445C202.759 51.5204 203.246 51.284 203.765 51.1491C204.283 51.0142 204.824 50.9835 205.354 51.0586C205.885 51.1338 206.395 51.3134 206.856 51.5871C207.317 51.8607 207.719 52.223 208.038 52.6529Z" fill="#263238"/>
<path d="M206.762 51.9247C206.686 52.1642 202.544 51.0623 197.798 48.8205C193.052 46.5786 189.283 44.7369 189.387 44.5615C189.491 44.386 193.484 45.7892 198.195 48.0349C202.907 50.2806 206.83 51.6914 206.762 51.9247Z" fill="#263238"/>
<path d="M192.658 36.4267C192.883 36.3508 193.467 38.5761 192.52 41.1181C191.572 43.6602 189.705 44.9867 189.611 44.8144C189.517 44.642 190.871 43.1543 191.696 40.8408C192.521 38.5272 192.395 36.4584 192.658 36.4267Z" fill="#263238"/>
<path d="M196.379 38.4352C196.593 38.3309 197.276 40.5239 196.168 42.9357C195.061 45.3475 193.007 46.3158 192.939 46.0842C192.87 45.8525 194.419 44.7169 195.346 42.5695C196.273 40.4222 196.116 38.4668 196.379 38.4352Z" fill="#263238"/>
<path d="M53.1934 115.486C53.0694 116.652 52.6021 117.756 51.8507 118.658C51.0994 119.559 50.0976 120.217 48.9721 120.549C47.8466 120.881 46.648 120.872 45.5277 120.522C44.4075 120.173 43.416 119.5 42.6786 118.587C41.9413 117.674 41.4911 116.563 41.3852 115.394C41.2792 114.226 41.5221 113.052 42.0832 112.021C42.6444 110.991 43.4985 110.15 44.5376 109.605C45.5767 109.06 46.7541 108.835 47.921 108.959C49.4846 109.128 50.9175 109.909 51.9058 111.133C52.8941 112.356 53.3571 113.921 53.1934 115.486Z" fill="#263238"/>
<path d="M52.5168 113.389C52.0257 113.688 48.5416 108.439 45.7004 101.319C42.8591 94.199 40.8336 88.4563 41.3125 88.2181C41.7915 87.9798 44.8028 93.474 47.6081 100.536C50.4134 107.598 53.0191 113.119 52.5168 113.389Z" fill="#263238"/>
<path d="M60.1927 84.577C60.5464 84.9088 57.2826 88.6012 51.4883 90.2804C49.0378 91.0425 46.4242 91.1113 43.937 90.4791C42.0029 89.9265 41.1353 88.9069 41.3024 88.7165C41.4695 88.5261 42.519 88.9532 44.2199 89.0477C46.4866 89.199 48.762 88.9425 50.9382 88.2906C56.1253 86.8316 59.8001 84.064 60.1927 84.577Z" fill="#263238"/>
<path d="M72.0499 111.815C71.9262 112.984 71.4586 114.09 70.7062 114.993C69.9537 115.897 68.9503 116.556 67.8229 116.889C66.6954 117.222 65.4946 117.213 64.3722 116.863C63.2499 116.513 62.2566 115.839 61.5178 114.924C60.7791 114.01 60.3281 112.897 60.2221 111.726C60.116 110.555 60.3596 109.379 60.922 108.347C61.4844 107.315 62.3403 106.472 63.3815 105.927C64.4227 105.381 65.6023 105.156 66.7713 105.281C68.3374 105.448 69.7731 106.23 70.7629 107.455C71.7527 108.681 72.2156 110.249 72.0499 111.815Z" fill="#263238"/>
<path d="M71.3953 109.761C70.9116 110.053 67.4275 104.805 64.5801 97.6775C61.7326 90.55 59.7442 84.8516 60.1922 84.5764C60.6403 84.3013 63.6887 89.8398 66.4878 96.8946C69.2869 103.949 71.8864 109.462 71.3953 109.761Z" fill="#263238"/>
<path d="M61.8722 88.2725C62.3097 88.5843 59.4025 92.3422 54.0474 94.0805C48.6922 95.8187 44.1318 94.5776 44.293 94.0653C44.4541 93.553 48.6069 93.7534 53.3988 92.123C58.1907 90.4926 61.4528 87.8323 61.8722 88.2725Z" fill="#263238"/>
<path d="M148.901 41.6854C149.324 42.4681 149.506 43.3588 149.423 44.2449C149.34 45.131 148.996 45.9725 148.435 46.663C147.873 47.3535 147.12 47.862 146.269 48.124C145.419 48.3861 144.51 48.39 143.657 48.1351C142.804 47.8803 142.046 47.3783 141.479 46.6925C140.912 46.0068 140.561 45.1682 140.47 44.2829C140.38 43.3976 140.554 42.5053 140.971 41.719C141.388 40.9327 142.028 40.2878 142.812 39.8657C143.331 39.5847 143.901 39.4088 144.488 39.3481C145.075 39.2875 145.668 39.3433 146.234 39.5123C146.8 39.6813 147.326 39.9603 147.784 40.3332C148.241 40.7061 148.621 41.1656 148.901 41.6854Z" fill="#263238"/>
<path d="M147.593 40.6961C147.415 41.0974 142.992 39.301 138.157 36.0395C133.323 32.7781 129.621 30.0878 129.816 29.7357C130.011 29.3837 134.247 31.526 139.031 34.7284C143.816 37.9308 147.775 40.3428 147.593 40.6961Z" fill="#263238"/>
<path d="M140.08 19.417C140.438 19.4689 139.981 23.1958 137.077 26.6873C135.874 28.2119 134.271 29.3729 132.448 30.0412C131.004 30.5229 130.029 30.2596 130.046 30.0696C130.063 29.8797 130.872 29.6909 132.011 29.0252C133.49 28.156 134.8 27.0274 135.879 25.6934C138.498 22.5666 139.615 19.2668 140.08 19.417Z" fill="#263238"/>
<path d="M159.11 31.3767C159.53 32.1584 159.709 33.0471 159.625 33.9306C159.54 34.8141 159.195 35.6526 158.634 36.3402C158.073 37.0278 157.32 37.5335 156.472 37.7935C155.623 38.0535 154.716 38.056 153.866 37.8008C153.016 37.5456 152.261 37.0441 151.696 36.3597C151.131 35.6753 150.781 34.8387 150.692 33.9557C150.602 33.0727 150.776 32.183 151.192 31.3989C151.608 30.6149 152.247 29.9718 153.028 29.5508C153.548 29.2712 154.117 29.0966 154.703 29.037C155.29 28.9774 155.883 29.034 156.447 29.2035C157.012 29.3731 157.538 29.6523 157.995 30.0252C158.452 30.3981 158.831 30.8573 159.11 31.3767Z" fill="#263238"/>
<path d="M157.832 30.3618C157.66 30.757 153.238 28.9605 148.396 25.7053C143.554 22.45 139.867 19.7474 140.062 19.3953C140.257 19.0432 144.492 21.1856 149.277 24.388C154.062 27.5904 158.017 29.9679 157.832 30.3618Z" fill="#263238"/>
<path d="M142.71 21.0087C143.112 21.0235 142.906 24.6151 140.3 27.9824C137.694 31.3497 134.316 32.5231 134.2 32.1301C134.084 31.7371 136.757 30.0985 139.064 27.033C141.37 23.9676 142.253 20.914 142.71 21.0087Z" fill="#263238"/>
<path d="M186.974 11.6171C186.869 11.9357 186.672 12.2161 186.408 12.4228C186.144 12.6294 185.824 12.753 185.49 12.7779C185.155 12.8029 184.821 12.728 184.529 12.5628C184.237 12.3976 184.001 12.1496 183.85 11.85C183.699 11.5504 183.64 11.2128 183.681 10.8799C183.722 10.547 183.861 10.2338 184.08 9.97985C184.3 9.72595 184.589 9.54278 184.913 9.45352C185.236 9.36427 185.578 9.37294 185.897 9.47844C186.323 9.61965 186.676 9.92412 186.878 10.3251C187.08 10.726 187.114 11.1907 186.974 11.6171Z" fill="#263238"/>
<path d="M186.917 11.01C186.761 11.0648 186.109 9.38724 185.746 7.21553C185.441 5.93111 185.295 4.61419 185.31 3.2942C185.478 3.25422 185.969 4.9791 186.328 7.11629C186.641 8.39386 186.838 9.69707 186.917 11.01Z" fill="#263238"/>
<path d="M190.811 3.42122C190.135 3.97298 189.32 4.32704 188.455 4.44421C187.591 4.56139 186.711 4.43713 185.912 4.08517C185.41 3.81545 185.227 3.47813 185.279 3.43481C185.331 3.39149 185.603 3.56573 186.083 3.70358C186.703 3.88322 187.35 3.9493 187.993 3.89862C189.533 3.80133 190.73 3.25006 190.811 3.42122Z" fill="#263238"/>
<path d="M192.473 11.744C192.368 12.0627 192.171 12.3431 191.907 12.5497C191.643 12.7563 191.323 12.8799 190.989 12.9049C190.654 12.9298 190.32 12.855 190.028 12.6898C189.736 12.5246 189.5 12.2765 189.349 11.9769C189.198 11.6773 189.139 11.3397 189.18 11.0068C189.221 10.6739 189.36 10.3607 189.579 10.1068C189.799 9.85292 190.088 9.66974 190.412 9.58048C190.735 9.49122 191.077 9.4999 191.396 9.6054C191.82 9.74875 192.172 10.0535 192.373 10.4538C192.575 10.854 192.611 11.3176 192.473 11.744Z" fill="#263238"/>
<path d="M192.416 11.137C192.26 11.1917 191.602 9.50682 191.237 7.34868C190.932 6.0623 190.789 4.743 190.809 3.42115C190.977 3.38116 191.468 5.10606 191.82 7.24944C192.13 8.52583 192.329 9.82647 192.416 11.137Z" fill="#263238"/>
<path d="M191.053 4.5501C190.737 4.91284 190.348 5.2039 189.91 5.40371C189.473 5.60351 188.998 5.70746 188.517 5.70857C186.916 5.88252 185.714 5.24378 185.794 5.11405C185.873 4.98432 187.016 5.28288 188.452 5.12178C189.889 4.96069 190.962 4.41226 191.053 4.5501Z" fill="#263238"/>
<path d="M67.0647 163.246C67.2129 163.975 67.1412 164.73 66.8588 165.418C66.5763 166.105 66.0959 166.693 65.4785 167.106C64.8612 167.52 64.1348 167.74 63.3917 167.74C62.6486 167.74 61.9225 167.518 61.3055 167.104C60.6885 166.69 60.2086 166.102 59.9268 165.414C59.6449 164.727 59.5739 163.971 59.7227 163.243C59.8716 162.515 60.2335 161.848 60.7626 161.326C61.2916 160.804 61.9639 160.452 62.6939 160.313C63.6618 160.129 64.6632 160.334 65.4813 160.883C66.2994 161.432 66.8683 162.281 67.0647 163.246Z" fill="#263238"/>
<path d="M66.2806 162.132C66.0447 162.405 62.949 159.898 59.9062 156.164C56.8634 152.431 54.5502 149.343 54.8011 149.133C55.0521 148.922 57.9042 151.634 60.9025 155.329C63.9008 159.024 66.5153 161.872 66.2806 162.132Z" fill="#263238"/>
<path d="M65.4553 143.327C65.7307 143.46 64.4547 146.315 61.2907 148.403C59.9637 149.331 58.4031 149.869 56.7859 149.956C55.5404 149.97 54.8054 149.543 54.8592 149.397C54.913 149.252 55.6197 149.3 56.6819 149.038C58.0755 148.707 59.3966 148.123 60.5795 147.315C63.4359 145.46 65.1204 143.092 65.4553 143.327Z" fill="#263238"/>
<path d="M77.7421 157.484C77.8894 158.21 77.8177 158.964 77.5362 159.65C77.2547 160.336 76.776 160.923 76.1607 161.337C75.5453 161.751 74.8211 161.973 74.0796 161.974C73.3382 161.976 72.6128 161.758 71.9954 161.348C71.378 160.937 70.8963 160.352 70.6114 159.668C70.3264 158.983 70.2509 158.23 70.3945 157.502C70.5381 156.775 70.8944 156.106 71.4181 155.581C71.9419 155.057 72.6096 154.699 73.3367 154.554C74.3092 154.36 75.3191 154.559 76.1449 155.108C76.9707 155.657 77.545 156.512 77.7421 157.484Z" fill="#263238"/>
<path d="M76.9798 156.364C76.7439 156.637 73.6482 154.13 70.6054 150.397C67.5627 146.664 65.2495 143.576 65.5077 143.359C65.766 143.142 68.6034 145.866 71.6017 149.561C74.6 153.256 77.201 156.103 76.9798 156.364Z" fill="#263238"/>
<path d="M67.1743 145.241C67.4928 145.351 66.4534 148.159 63.5582 150.222C60.663 152.286 57.6864 152.394 57.6817 152.058C57.677 151.723 60.2176 151.05 62.7965 149.164C65.3753 147.278 66.8284 145.054 67.1743 145.241Z" fill="#263238"/>
</g>
</svg>
