<svg width="68" height="68" viewBox="0 0 68 68" fill="none" xmlns="http://www.w3.org/2000/svg">
<circle cx="34" cy="34" r="34" fill="#F8F8F8"/>
<path d="M23.8804 53.3122L13.7356 58.8459C13.1403 59.1705 12.6052 59.5695 12.1074 60.0044C18.0221 64.9915 25.6574 68.0002 33.9996 68.0002C42.2802 68.0002 49.8667 65.0364 55.7647 60.1173C55.2207 59.658 54.6305 59.2449 53.9762 58.919L43.1129 53.488C41.7092 52.7862 40.8227 51.3517 40.8227 49.7826V45.5204C41.128 45.1727 41.477 44.7262 41.8504 44.1989C43.331 42.1076 44.451 39.8071 45.2273 37.3938C46.6206 36.964 47.647 35.6771 47.647 34.1477V29.5982C47.647 28.5974 47.2018 27.7031 46.5103 27.077V20.5003C46.5103 20.5003 47.8613 10.2656 34.0009 10.2656C20.1404 10.2656 21.4914 20.5003 21.4914 20.5003V27.077C20.7986 27.7031 20.3547 28.5974 20.3547 29.5982V34.1477C20.3547 35.3461 20.9846 36.4007 21.9276 37.0102C23.0644 41.9588 26.041 45.5204 26.041 45.5204V49.6774C26.0397 51.1914 25.2109 52.586 23.8804 53.3122Z" fill="#BDBDBD"/>
<path d="M40.4496 27.3733V30.5118H35.2188V35.7426H32.0804V30.5118H26.8496V27.3733H32.0804V22.1426H35.2188V27.3733H40.4496Z" fill="#F8F8F8"/>
</svg>
