<svg width="157" height="159" viewBox="0 0 157 159" fill="none" xmlns="http://www.w3.org/2000/svg">
<path d="M87.8433 88.4679L81.1989 76.752H71.596L85.0906 99.9511L87.8433 88.4679Z" fill="url(#paint0_linear_1902_47428)"/>
<path fill-rule="evenodd" clip-rule="evenodd" d="M100.619 69.4174L93.5383 99.9537L85.091 99.9537L92.6417 68.3322C92.7842 67.2907 93.2653 66.2858 93.8924 65.4329C94.5356 64.558 95.3381 63.8194 96.254 63.2591C97.1699 62.6989 98.1813 62.328 99.2305 62.1677C100.28 62.0073 101.346 62.0606 102.369 62.3246L100.619 69.4174Z" fill="url(#paint1_linear_1902_47428)"/>
<path fill-rule="evenodd" clip-rule="evenodd" d="M51.5673 67.7468L59.3025 99.9436H67.6884L59.85 67.925C59.8275 67.8188 59.8018 67.714 59.773 67.6104L59.7498 67.5159L59.7457 67.5159C59.5083 66.7207 59.0906 66.0018 58.5911 65.3489C57.9322 64.4877 57.1192 63.7658 56.1983 63.2243C55.2775 62.6828 54.2669 62.3325 53.2242 62.1932C52.1816 62.0539 51.1273 62.1285 50.1216 62.4126L51.5673 67.7468Z" fill="url(#paint2_linear_1902_47428)"/>
<path d="M65.2708 87.8791L71.4441 76.752H81.047L67.6868 99.9428H59.3042L65.0422 88.2602L65.2708 87.8791Z" fill="url(#paint3_linear_1902_47428)"/>
<circle cx="48.8379" cy="17.5659" r="1.37549" fill="#EA7F1F"/>
<circle cx="48.8379" cy="23.6704" r="1.37549" fill="#EA7F1F"/>
<circle cx="48.8379" cy="29.7749" r="1.37549" fill="#EA7F1F"/>
<circle cx="48.8379" cy="35.8794" r="1.37549" fill="#EA7F1F"/>
<circle cx="48.8379" cy="41.9839" r="1.37549" fill="#EA7F1F"/>
<circle cx="48.8379" cy="48.0874" r="1.37549" fill="#EA7F1F"/>
<circle r="1.37549" transform="matrix(1 0 0 -1 49.0855 143.556)" fill="#EA7F1F"/>
<circle r="1.37549" transform="matrix(1 0 0 -1 49.0855 137.452)" fill="#EA7F1F"/>
<circle r="1.37549" transform="matrix(1 0 0 -1 49.0855 131.347)" fill="#EA7F1F"/>
<circle r="1.37549" transform="matrix(1 0 0 -1 49.0855 125.243)" fill="#EA7F1F"/>
<circle r="1.37549" transform="matrix(1 0 0 -1 49.0855 119.138)" fill="#EA7F1F"/>
<circle r="1.37549" transform="matrix(1 0 0 -1 49.0855 113.035)" fill="#EA7F1F"/>
<circle cx="58.9546" cy="23.6714" r="1.37549" fill="#EA7F1F"/>
<circle cx="58.9546" cy="29.7759" r="1.37549" fill="#EA7F1F"/>
<circle cx="58.9546" cy="35.8804" r="1.37549" fill="#EA7F1F"/>
<circle cx="58.9546" cy="41.9849" r="1.37549" fill="#EA7F1F"/>
<circle r="1.37549" transform="matrix(1 0 0 -1 59.1455 137.605)" fill="#EA7F1F"/>
<circle r="1.37549" transform="matrix(1 0 0 -1 59.1455 131.5)" fill="#EA7F1F"/>
<circle r="1.37549" transform="matrix(1 0 0 -1 59.1455 125.396)" fill="#EA7F1F"/>
<circle r="1.37549" transform="matrix(1 0 0 -1 59.1455 119.291)" fill="#EA7F1F"/>
<circle cx="67.4951" cy="8.45264" r="1.37549" fill="#EA7F1F"/>
<circle cx="67.4951" cy="14.5571" r="1.37549" fill="#EA7F1F"/>
<circle cx="67.4951" cy="20.6616" r="1.37549" fill="#EA7F1F"/>
<circle cx="67.4951" cy="26.7661" r="1.37549" fill="#EA7F1F"/>
<circle cx="67.4951" cy="32.8706" r="1.37549" fill="#EA7F1F"/>
<circle cx="67.4951" cy="38.9741" r="1.37549" fill="#EA7F1F"/>
<circle r="1.37549" transform="matrix(1 0 0 -1 67.4951 148.555)" fill="#EA7F1F"/>
<circle r="1.37549" transform="matrix(1 0 0 -1 67.4951 142.451)" fill="#EA7F1F"/>
<circle r="1.37549" transform="matrix(1 0 0 -1 67.4951 136.346)" fill="#EA7F1F"/>
<circle r="1.37549" transform="matrix(1 0 0 -1 67.4951 130.242)" fill="#EA7F1F"/>
<circle r="1.37549" transform="matrix(1 0 0 -1 67.4951 124.137)" fill="#EA7F1F"/>
<circle r="1.37549" transform="matrix(1 0 0 -1 67.4951 118.034)" fill="#EA7F1F"/>
<circle cx="76.3076" cy="1.54639" r="1.37549" fill="#EA7F1F"/>
<circle cx="76.3076" cy="7.65088" r="1.37549" fill="#EA7F1F"/>
<circle cx="76.3076" cy="13.7554" r="1.37549" fill="#EA7F1F"/>
<circle cx="76.3076" cy="19.8599" r="1.37549" fill="#EA7F1F"/>
<circle cx="76.3076" cy="25.9644" r="1.37549" fill="#EA7F1F"/>
<circle cx="76.3076" cy="32.0679" r="1.37549" fill="#EA7F1F"/>
<circle cx="76.3076" cy="38.1724" r="1.37549" fill="#EA7F1F"/>
<circle r="1.37549" transform="matrix(1 0 0 -1 76.7642 155.765)" fill="#EA7F1F"/>
<circle r="1.37549" transform="matrix(1 0 0 -1 76.7642 149.661)" fill="#EA7F1F"/>
<circle r="1.37549" transform="matrix(1 0 0 -1 76.7642 143.556)" fill="#EA7F1F"/>
<circle r="1.37549" transform="matrix(1 0 0 -1 76.7642 137.452)" fill="#EA7F1F"/>
<circle r="1.37549" transform="matrix(1 0 0 -1 76.7642 131.347)" fill="#EA7F1F"/>
<circle r="1.37549" transform="matrix(1 0 0 -1 76.7642 125.244)" fill="#EA7F1F"/>
<circle r="1.37549" transform="matrix(1 0 0 -1 76.7642 119.139)" fill="#EA7F1F"/>
<circle cx="85.6089" cy="8.41749" r="1.37549" fill="#EA7F1F"/>
<circle cx="85.6089" cy="14.522" r="1.37549" fill="#EA7F1F"/>
<circle cx="85.6089" cy="20.6265" r="1.37549" fill="#EA7F1F"/>
<circle cx="85.6089" cy="26.731" r="1.37549" fill="#EA7F1F"/>
<circle cx="85.6089" cy="32.8355" r="1.37549" fill="#EA7F1F"/>
<circle cx="85.6089" cy="38.939" r="1.37549" fill="#EA7F1F"/>
<circle r="1.37549" transform="matrix(1 0 0 -1 86.2778 153.4)" fill="#EA7F1F"/>
<circle r="1.37549" transform="matrix(1 0 0 -1 86.2778 147.295)" fill="#EA7F1F"/>
<circle r="1.37549" transform="matrix(1 0 0 -1 86.2778 141.191)" fill="#EA7F1F"/>
<circle r="1.37549" transform="matrix(1 0 0 -1 86.2778 135.086)" fill="#EA7F1F"/>
<circle r="1.37549" transform="matrix(1 0 0 -1 86.2778 128.982)" fill="#EA7F1F"/>
<circle r="1.37549" transform="matrix(1 0 0 -1 86.2778 122.878)" fill="#EA7F1F"/>
<circle cx="94.5742" cy="22.3804" r="1.37549" fill="#EA7F1F"/>
<circle cx="94.5742" cy="28.4849" r="1.37549" fill="#EA7F1F"/>
<circle cx="94.5742" cy="34.5894" r="1.37549" fill="#EA7F1F"/>
<circle cx="94.5742" cy="40.6939" r="1.37549" fill="#EA7F1F"/>
<circle cx="94.5742" cy="46.7983" r="1.37549" fill="#EA7F1F"/>
<circle r="1.37549" transform="matrix(1 0 0 -1 95.4888 138.438)" fill="#EA7F1F"/>
<circle r="1.37549" transform="matrix(1 0 0 -1 95.4888 132.333)" fill="#EA7F1F"/>
<circle r="1.37549" transform="matrix(1 0 0 -1 95.4888 126.229)" fill="#EA7F1F"/>
<circle r="1.37549" transform="matrix(1 0 0 -1 95.4888 120.125)" fill="#EA7F1F"/>
<circle r="1.37549" transform="matrix(1 0 0 -1 95.4888 114.02)" fill="#EA7F1F"/>
<circle cx="105.675" cy="19.0181" r="1.37549" fill="#EA7F1F"/>
<circle cx="105.675" cy="25.1226" r="1.37549" fill="#EA7F1F"/>
<circle cx="105.675" cy="31.2271" r="1.37549" fill="#EA7F1F"/>
<circle cx="105.675" cy="37.3315" r="1.37549" fill="#EA7F1F"/>
<circle cx="105.675" cy="43.436" r="1.37549" fill="#EA7F1F"/>
<circle cx="105.675" cy="49.5396" r="1.37549" fill="#EA7F1F"/>
<circle cx="105.675" cy="55.644" r="1.37549" fill="#EA7F1F"/>
<circle r="1.37549" transform="matrix(1 0 0 -1 103.847 144.237)" fill="#EA7F1F"/>
<circle r="1.37549" transform="matrix(1 0 0 -1 103.847 138.132)" fill="#EA7F1F"/>
<circle r="1.37549" transform="matrix(1 0 0 -1 103.847 132.028)" fill="#EA7F1F"/>
<circle r="1.37549" transform="matrix(1 0 0 -1 103.847 125.923)" fill="#EA7F1F"/>
<circle r="1.37549" transform="matrix(1 0 0 -1 103.847 119.819)" fill="#EA7F1F"/>
<circle r="1.37549" transform="matrix(1 0 0 -1 103.847 113.715)" fill="#EA7F1F"/>
<circle r="1.37549" transform="matrix(1 0 0 -1 103.847 107.611)" fill="#EA7F1F"/>
<circle cx="114.908" cy="34.7759" r="1.37549" fill="#EA7F1F"/>
<circle cx="114.908" cy="40.8804" r="1.37549" fill="#EA7F1F"/>
<circle cx="114.908" cy="46.9849" r="1.37549" fill="#EA7F1F"/>
<circle cx="114.908" cy="53.0894" r="1.37549" fill="#EA7F1F"/>
<circle cx="114.908" cy="59.1939" r="1.37549" fill="#EA7F1F"/>
<circle cx="114.908" cy="65.2974" r="1.37549" fill="#EA7F1F"/>
<circle cx="114.908" cy="71.4019" r="1.37549" fill="#EA7F1F"/>
<circle r="1.37549" transform="matrix(-1 0 0 1 39.3159 35.5386)" fill="#EA7F1F"/>
<circle r="1.37549" transform="matrix(-1 0 0 1 39.3159 41.6431)" fill="#EA7F1F"/>
<circle r="1.37549" transform="matrix(-1 0 0 1 39.3159 47.7476)" fill="#EA7F1F"/>
<circle r="1.37549" transform="matrix(-1 0 0 1 39.3159 53.8521)" fill="#EA7F1F"/>
<circle r="1.37549" transform="matrix(-1 0 0 1 39.3159 59.9565)" fill="#EA7F1F"/>
<circle r="1.37549" transform="matrix(-1 0 0 1 39.3159 66.0601)" fill="#EA7F1F"/>
<circle r="1.37549" transform="matrix(-1 0 0 1 39.3159 72.1646)" fill="#EA7F1F"/>
<circle r="1.37549" transform="matrix(-1 0 0 1 44.9687 59.6226)" fill="#EA7F1F"/>
<circle r="1.37549" transform="matrix(-1 0 0 1 48.7803 54.5913)" fill="#EA7F1F"/>
<circle r="1.37549" transform="matrix(-1 0 0 1 53.6577 50.3218)" fill="#EA7F1F"/>
<circle r="1.37549" transform="matrix(-1 0 0 1 58.9932 46.8179)" fill="#EA7F1F"/>
<circle r="1.37549" transform="matrix(-1 0 0 1 67.5288 44.0737)" fill="#EA7F1F"/>
<circle r="1.37549" transform="matrix(-1 0 0 1 76.2163 43.0064)" fill="#EA7F1F"/>
<circle r="1.37549" transform="matrix(-1 0 0 1 85.3633 44.0737)" fill="#EA7F1F"/>
<circle r="1.37549" transform="matrix(-1 0 0 1 100.149 50.7798)" fill="#EA7F1F"/>
<circle r="1.37549" transform="matrix(-1 0 0 1 109.752 61.7564)" fill="#EA7F1F"/>
<circle r="1.37549" transform="matrix(-1 0 0 1 114.781 80.1978)" fill="#EA7F1F"/>
<circle r="1.37549" transform="matrix(-1 0 0 1 108.989 101.083)" fill="#EA7F1F"/>
<circle r="1.37549" transform="matrix(-1 0 0 1 86.2768 117.848)" fill="#EA7F1F"/>
<circle r="1.37549" transform="matrix(-1 0 0 1 59.1382 114.496)" fill="#EA7F1F"/>
<circle r="1.37549" transform="matrix(-1 0 0 1 49.0776 107.635)" fill="#EA7F1F"/>
<circle r="1.37549" transform="matrix(-1 0 0 1 44.6655 101.691)" fill="#EA7F1F"/>
<circle r="1.37549" transform="matrix(-1 0 0 1 39.4824 80.0464)" fill="#EA7F1F"/>
<circle cx="114.298" cy="88.6939" r="1.37549" fill="#EA7F1F"/>
<circle cx="114.298" cy="94.7983" r="1.37549" fill="#EA7F1F"/>
<circle cx="114.298" cy="100.903" r="1.37549" fill="#EA7F1F"/>
<circle cx="114.298" cy="107.007" r="1.37549" fill="#EA7F1F"/>
<circle cx="114.298" cy="113.112" r="1.37549" fill="#EA7F1F"/>
<circle cx="114.298" cy="119.215" r="1.37549" fill="#EA7F1F"/>
<circle cx="114.298" cy="125.32" r="1.37549" fill="#EA7F1F"/>
<circle r="1.37549" transform="matrix(-1 0 0 1 39.0127 89.4565)" fill="#EA7F1F"/>
<circle r="1.37549" transform="matrix(-1 0 0 1 39.0127 95.561)" fill="#EA7F1F"/>
<circle r="1.37549" transform="matrix(-1 0 0 1 39.0127 101.666)" fill="#EA7F1F"/>
<circle r="1.37549" transform="matrix(-1 0 0 1 39.0127 107.77)" fill="#EA7F1F"/>
<circle r="1.37549" transform="matrix(-1 0 0 1 39.0127 113.875)" fill="#EA7F1F"/>
<circle r="1.37549" transform="matrix(-1 0 0 1 39.0127 119.978)" fill="#EA7F1F"/>
<circle r="1.37549" transform="matrix(-1 0 0 1 39.0127 126.083)" fill="#EA7F1F"/>
<circle cx="123.417" cy="44.7349" r="1.37549" fill="#EA7F1F"/>
<circle cx="123.417" cy="50.8394" r="1.37549" fill="#EA7F1F"/>
<circle cx="123.417" cy="56.9439" r="1.37549" fill="#EA7F1F"/>
<circle cx="123.417" cy="63.0483" r="1.37549" fill="#EA7F1F"/>
<circle cx="123.417" cy="69.1528" r="1.37549" fill="#EA7F1F"/>
<circle cx="123.417" cy="75.2564" r="1.37549" fill="#EA7F1F"/>
<circle cx="123.417" cy="81.3608" r="1.37549" fill="#EA7F1F"/>
<circle cx="123.417" cy="87.4653" r="1.37549" fill="#EA7F1F"/>
<circle cx="123.417" cy="93.5698" r="1.37549" fill="#EA7F1F"/>
<circle cx="123.417" cy="99.6743" r="1.37549" fill="#EA7F1F"/>
<circle cx="123.417" cy="105.779" r="1.37549" fill="#EA7F1F"/>
<circle cx="123.417" cy="111.883" r="1.37549" fill="#EA7F1F"/>
<circle r="1.37549" transform="matrix(-1 0 0 1 29.7422 44.7349)" fill="#EA7F1F"/>
<circle r="1.37549" transform="matrix(-1 0 0 1 29.7422 50.8394)" fill="#EA7F1F"/>
<circle r="1.37549" transform="matrix(-1 0 0 1 29.7422 56.9439)" fill="#EA7F1F"/>
<circle r="1.37549" transform="matrix(-1 0 0 1 29.7422 63.0483)" fill="#EA7F1F"/>
<circle r="1.37549" transform="matrix(-1 0 0 1 29.7422 69.1528)" fill="#EA7F1F"/>
<circle r="1.37549" transform="matrix(-1 0 0 1 29.7422 75.2564)" fill="#EA7F1F"/>
<circle r="1.37549" transform="matrix(-1 0 0 1 29.7422 81.3608)" fill="#EA7F1F"/>
<circle r="1.37549" transform="matrix(-1 0 0 1 29.7422 87.4653)" fill="#EA7F1F"/>
<circle r="1.37549" transform="matrix(-1 0 0 1 29.7422 93.5698)" fill="#EA7F1F"/>
<circle r="1.37549" transform="matrix(-1 0 0 1 29.7422 99.6743)" fill="#EA7F1F"/>
<circle r="1.37549" transform="matrix(-1 0 0 1 29.7422 105.779)" fill="#EA7F1F"/>
<circle r="1.37549" transform="matrix(-1 0 0 1 29.7422 111.883)" fill="#EA7F1F"/>
<circle cx="132.686" cy="58.9351" r="1.37549" fill="#EA7F1F"/>
<circle cx="132.686" cy="65.0396" r="1.37549" fill="#EA7F1F"/>
<circle cx="132.686" cy="71.1441" r="1.37549" fill="#EA7F1F"/>
<circle cx="132.686" cy="77.2485" r="1.37549" fill="#EA7F1F"/>
<circle cx="132.686" cy="83.353" r="1.37549" fill="#EA7F1F"/>
<circle cx="132.686" cy="89.4566" r="1.37549" fill="#EA7F1F"/>
<circle cx="132.686" cy="95.561" r="1.37549" fill="#EA7F1F"/>
<circle r="1.37549" transform="matrix(-1 0 0 1 20.4717 58.9351)" fill="#EA7F1F"/>
<circle r="1.37549" transform="matrix(-1 0 0 1 20.4717 65.0396)" fill="#EA7F1F"/>
<circle r="1.37549" transform="matrix(-1 0 0 1 20.4717 71.144)" fill="#EA7F1F"/>
<circle r="1.37549" transform="matrix(-1 0 0 1 20.4717 77.2485)" fill="#EA7F1F"/>
<circle r="1.37549" transform="matrix(-1 0 0 1 20.4717 83.353)" fill="#EA7F1F"/>
<circle r="1.37549" transform="matrix(-1 0 0 1 20.4717 89.4565)" fill="#EA7F1F"/>
<circle r="1.37549" transform="matrix(-1 0 0 1 20.4717 95.561)" fill="#EA7F1F"/>
<circle cx="141.957" cy="56.3433" r="1.37549" fill="#EA7F1F"/>
<circle cx="141.957" cy="62.4478" r="1.37549" fill="#EA7F1F"/>
<circle cx="141.957" cy="68.5523" r="1.37549" fill="#EA7F1F"/>
<circle cx="141.957" cy="74.6567" r="1.37549" fill="#EA7F1F"/>
<circle cx="141.957" cy="80.7612" r="1.37549" fill="#EA7F1F"/>
<circle cx="141.957" cy="86.8648" r="1.37549" fill="#EA7F1F"/>
<circle cx="141.957" cy="92.9692" r="1.37549" fill="#EA7F1F"/>
<circle cx="141.957" cy="99.0737" r="1.37549" fill="#EA7F1F"/>
<circle r="1.37549" transform="matrix(-1 0 0 1 11.2002 56.3433)" fill="#EA7F1F"/>
<circle r="1.37549" transform="matrix(-1 0 0 1 11.2002 62.4478)" fill="#EA7F1F"/>
<circle r="1.37549" transform="matrix(-1 0 0 1 11.2002 68.5523)" fill="#EA7F1F"/>
<circle r="1.37549" transform="matrix(-1 0 0 1 11.2002 74.6567)" fill="#EA7F1F"/>
<circle r="1.37549" transform="matrix(-1 0 0 1 11.2002 80.7612)" fill="#EA7F1F"/>
<circle r="1.37549" transform="matrix(-1 0 0 1 11.2002 86.8648)" fill="#EA7F1F"/>
<circle r="1.37549" transform="matrix(-1 0 0 1 11.2002 92.9692)" fill="#EA7F1F"/>
<circle r="1.37549" transform="matrix(-1 0 0 1 11.2002 99.0737)" fill="#EA7F1F"/>
<circle cx="151.783" cy="71.1431" r="1.37549" fill="#EA7F1F"/>
<circle cx="151.783" cy="77.2476" r="1.37549" fill="#EA7F1F"/>
<circle cx="151.783" cy="83.3521" r="1.37549" fill="#EA7F1F"/>
<circle r="1.37549" transform="matrix(-1 0 0 1 1.37548 71.1431)" fill="url(#paint4_linear_1902_47428)"/>
<circle r="1.37549" transform="matrix(-1 0 0 1 1.37548 77.2476)" fill="#EA7F1F"/>
<circle r="1.37549" transform="matrix(-1 0 0 1 1.37548 83.3521)" fill="#EA7F1F"/>
<defs>
<linearGradient id="paint0_linear_1902_47428" x1="89.43" y1="99.7772" x2="77.506" y2="76.724" gradientUnits="userSpaceOnUse">
<stop stop-color="#FC4A1A"/>
<stop offset="1" stop-color="#EA7F1F"/>
</linearGradient>
<linearGradient id="paint1_linear_1902_47428" x1="90.4235" y1="101.17" x2="103.071" y2="60.4547" gradientUnits="userSpaceOnUse">
<stop stop-color="#EA7F1F"/>
<stop offset="1" stop-color="#FC4A1A"/>
</linearGradient>
<linearGradient id="paint2_linear_1902_47428" x1="51.6703" y1="62.0185" x2="62.2032" y2="99.7777" gradientUnits="userSpaceOnUse">
<stop stop-color="#EA7F1F"/>
<stop offset="1" stop-color="#FC4A1A"/>
</linearGradient>
<linearGradient id="paint3_linear_1902_47428" x1="76.91" y1="76.724" x2="62.4024" y2="99.7772" gradientUnits="userSpaceOnUse">
<stop stop-color="#FC4A1A"/>
<stop offset="1" stop-color="#EA7F1F"/>
</linearGradient>
<linearGradient id="paint4_linear_1902_47428" x1="1.37549" y1="0" x2="1.37549" y2="2.75099" gradientUnits="userSpaceOnUse">
<stop stop-color="#EA7F1F"/>
<stop offset="1" stop-color="#EA7F1F"/>
</linearGradient>
</defs>
</svg>
