<svg width="70" height="71" viewBox="0 0 70 71" fill="none" xmlns="http://www.w3.org/2000/svg">
<path d="M39.166 39.5525L36.2036 34.3289H31.922L37.9387 44.6724L39.166 39.5525Z" fill="#F2F2F2"/>
<path fill-rule="evenodd" clip-rule="evenodd" d="M44.8499 31.1096L41.7049 44.6729L37.9386 44.6729L41.3069 30.5669C41.3717 30.1053 41.5854 29.66 41.8635 29.2818C42.1503 28.8918 42.5081 28.5624 42.9164 28.3126C43.3248 28.0628 43.7757 27.8975 44.2435 27.826C44.7113 27.7545 45.1867 27.7783 45.6426 27.896L44.8499 31.1096Z" fill="#FBFAFA"/>
<path fill-rule="evenodd" clip-rule="evenodd" d="M22.9935 30.3199L26.4408 44.6688L30.1798 44.6688L26.6833 30.3866C26.6741 30.3436 26.6636 30.3009 26.652 30.2588L26.6402 30.2106L26.6382 30.2106C26.5324 29.856 26.3461 29.5354 26.1234 29.2443C25.8296 28.8603 25.4671 28.5384 25.0565 28.297C24.646 28.0556 24.1954 27.8994 23.7305 27.8373C23.2656 27.7752 22.7956 27.8084 22.3472 27.9351L22.9935 30.3199Z" fill="white"/>
<path d="M29.1017 39.29L31.8541 34.3289H36.1357L30.1789 44.6687H26.4414L28.9997 39.4599L29.1017 39.29Z" fill="#F8F8F8"/>
<circle cx="21.7744" cy="7.94018" r="0.613278" fill="white"/>
<circle cx="21.7744" cy="10.6619" r="0.613278" fill="white"/>
<circle cx="21.7744" cy="13.3835" r="0.613278" fill="white"/>
<circle cx="21.7744" cy="16.1052" r="0.613278" fill="white"/>
<circle cx="21.7744" cy="18.8269" r="0.613278" fill="white"/>
<circle cx="21.7744" cy="21.5486" r="0.613278" fill="white"/>
<circle r="0.613278" transform="matrix(1 0 0 -1 21.8848 64.1145)" fill="white"/>
<circle r="0.613278" transform="matrix(1 0 0 -1 21.8848 61.3928)" fill="white"/>
<circle r="0.613278" transform="matrix(1 0 0 -1 21.8848 58.6711)" fill="white"/>
<circle r="0.613278" transform="matrix(1 0 0 -1 21.8848 55.9495)" fill="white"/>
<circle r="0.613278" transform="matrix(1 0 0 -1 21.8848 53.2278)" fill="white"/>
<circle r="0.613278" transform="matrix(1 0 0 -1 21.8848 50.5061)" fill="white"/>
<circle cx="26.2856" cy="10.6619" r="0.613278" fill="white"/>
<circle cx="26.2856" cy="13.3835" r="0.613278" fill="white"/>
<circle cx="26.2856" cy="16.1052" r="0.613278" fill="white"/>
<circle cx="26.2856" cy="18.8269" r="0.613278" fill="white"/>
<circle r="0.613278" transform="matrix(1 0 0 -1 26.3706 61.4609)" fill="white"/>
<circle r="0.613278" transform="matrix(1 0 0 -1 26.3706 58.7393)" fill="white"/>
<circle r="0.613278" transform="matrix(1 0 0 -1 26.3706 56.0176)" fill="white"/>
<circle r="0.613278" transform="matrix(1 0 0 -1 26.3706 53.2959)" fill="white"/>
<circle cx="30.0933" cy="3.87744" r="0.613278" fill="white"/>
<circle cx="30.0933" cy="6.59912" r="0.613278" fill="white"/>
<circle cx="30.0933" cy="9.3208" r="0.613278" fill="white"/>
<circle cx="30.0933" cy="12.0425" r="0.613278" fill="white"/>
<circle cx="30.0933" cy="14.7642" r="0.613278" fill="white"/>
<circle cx="30.0933" cy="17.4858" r="0.613278" fill="white"/>
<circle r="0.613278" transform="matrix(1 0 0 -1 30.0933 66.3425)" fill="white"/>
<circle r="0.613278" transform="matrix(1 0 0 -1 30.0933 63.6209)" fill="white"/>
<circle r="0.613278" transform="matrix(1 0 0 -1 30.0933 60.8992)" fill="white"/>
<circle r="0.613278" transform="matrix(1 0 0 -1 30.0933 58.1775)" fill="white"/>
<circle r="0.613278" transform="matrix(1 0 0 -1 30.0933 55.4558)" fill="white"/>
<circle r="0.613278" transform="matrix(1 0 0 -1 30.0933 52.7341)" fill="white"/>
<circle cx="34.022" cy="0.797604" r="0.613278" fill="white"/>
<circle cx="34.022" cy="3.51928" r="0.613278" fill="white"/>
<circle cx="34.022" cy="6.24096" r="0.613278" fill="white"/>
<circle cx="34.022" cy="8.96264" r="0.613278" fill="white"/>
<circle cx="34.022" cy="11.6843" r="0.613278" fill="white"/>
<circle cx="34.022" cy="14.406" r="0.613278" fill="white"/>
<circle cx="34.022" cy="17.1279" r="0.613278" fill="white"/>
<circle r="0.613278" transform="matrix(1 0 0 -1 34.2261 69.5581)" fill="white"/>
<circle r="0.613278" transform="matrix(1 0 0 -1 34.2261 66.8364)" fill="white"/>
<circle r="0.613278" transform="matrix(1 0 0 -1 34.2261 64.1147)" fill="white"/>
<circle r="0.613278" transform="matrix(1 0 0 -1 34.2261 61.3931)" fill="white"/>
<circle r="0.613278" transform="matrix(1 0 0 -1 34.2261 58.6714)" fill="white"/>
<circle r="0.613278" transform="matrix(1 0 0 -1 34.2261 55.9497)" fill="white"/>
<circle r="0.613278" transform="matrix(1 0 0 -1 34.2261 53.2278)" fill="white"/>
<circle cx="38.1694" cy="3.86084" r="0.613278" fill="white"/>
<circle cx="38.1694" cy="6.58252" r="0.613278" fill="white"/>
<circle cx="38.1694" cy="9.3042" r="0.613278" fill="white"/>
<circle cx="38.1694" cy="12.0259" r="0.613278" fill="white"/>
<circle cx="38.1694" cy="14.7476" r="0.613278" fill="white"/>
<circle cx="38.1694" cy="17.4692" r="0.613278" fill="white"/>
<circle r="0.613278" transform="matrix(1 0 0 -1 38.4678 68.5032)" fill="white"/>
<circle r="0.613278" transform="matrix(1 0 0 -1 38.4678 65.7815)" fill="white"/>
<circle r="0.613278" transform="matrix(1 0 0 -1 38.4678 63.0598)" fill="white"/>
<circle r="0.613278" transform="matrix(1 0 0 -1 38.4678 60.3381)" fill="white"/>
<circle r="0.613278" transform="matrix(1 0 0 -1 38.4678 57.6165)" fill="white"/>
<circle r="0.613278" transform="matrix(1 0 0 -1 38.4678 54.8948)" fill="white"/>
<circle cx="42.167" cy="10.0867" r="0.613278" fill="white"/>
<circle cx="42.167" cy="12.8083" r="0.613278" fill="white"/>
<circle cx="42.167" cy="15.53" r="0.613278" fill="white"/>
<circle cx="42.167" cy="18.2517" r="0.613278" fill="white"/>
<circle cx="42.167" cy="20.9734" r="0.613278" fill="white"/>
<circle r="0.613278" transform="matrix(1 0 0 -1 42.5747 61.832)" fill="white"/>
<circle r="0.613278" transform="matrix(1 0 0 -1 42.5747 59.1104)" fill="white"/>
<circle r="0.613278" transform="matrix(1 0 0 -1 42.5747 56.3887)" fill="white"/>
<circle r="0.613278" transform="matrix(1 0 0 -1 42.5747 53.667)" fill="white"/>
<circle r="0.613278" transform="matrix(1 0 0 -1 42.5747 50.9453)" fill="white"/>
<circle cx="47.1162" cy="8.58838" r="0.613278" fill="white"/>
<circle cx="47.1162" cy="11.3101" r="0.613278" fill="white"/>
<circle cx="47.1162" cy="14.0317" r="0.613278" fill="white"/>
<circle cx="47.1162" cy="16.7534" r="0.613278" fill="white"/>
<circle cx="47.1162" cy="19.4751" r="0.613278" fill="white"/>
<circle cx="47.1162" cy="22.1968" r="0.613278" fill="white"/>
<circle cx="47.1162" cy="24.9187" r="0.613278" fill="white"/>
<circle r="0.613278" transform="matrix(1 0 0 -1 46.3008 64.418)" fill="white"/>
<circle r="0.613278" transform="matrix(1 0 0 -1 46.3008 61.6963)" fill="white"/>
<circle r="0.613278" transform="matrix(1 0 0 -1 46.3008 58.9746)" fill="white"/>
<circle r="0.613278" transform="matrix(1 0 0 -1 46.3008 56.2529)" fill="white"/>
<circle r="0.613278" transform="matrix(1 0 0 -1 46.3008 53.5313)" fill="white"/>
<circle r="0.613278" transform="matrix(1 0 0 -1 46.3008 50.8096)" fill="white"/>
<circle r="0.613278" transform="matrix(1 0 0 -1 46.3008 48.0877)" fill="white"/>
<circle cx="51.2329" cy="15.6133" r="0.613278" fill="white"/>
<circle cx="51.2329" cy="18.335" r="0.613278" fill="white"/>
<circle cx="51.2329" cy="21.0566" r="0.613278" fill="white"/>
<circle cx="51.2329" cy="23.7783" r="0.613278" fill="white"/>
<circle cx="51.2329" cy="26.5" r="0.613278" fill="white"/>
<circle cx="51.2329" cy="29.2217" r="0.613278" fill="white"/>
<circle cx="51.2329" cy="31.9436" r="0.613278" fill="white"/>
<circle r="0.613278" transform="matrix(-1 0 0 1 17.5298 15.9531)" fill="white"/>
<circle r="0.613278" transform="matrix(-1 0 0 1 17.5298 18.6748)" fill="white"/>
<circle r="0.613278" transform="matrix(-1 0 0 1 17.5298 21.3965)" fill="white"/>
<circle r="0.613278" transform="matrix(-1 0 0 1 17.5298 24.1182)" fill="white"/>
<circle r="0.613278" transform="matrix(-1 0 0 1 17.5298 26.8398)" fill="white"/>
<circle r="0.613278" transform="matrix(-1 0 0 1 17.5298 29.5615)" fill="white"/>
<circle r="0.613278" transform="matrix(-1 0 0 1 17.5298 32.2834)" fill="white"/>
<circle r="0.613278" transform="matrix(-1 0 0 1 20.0503 26.6909)" fill="white"/>
<circle r="0.613278" transform="matrix(-1 0 0 1 21.7495 24.4482)" fill="white"/>
<circle r="0.613278" transform="matrix(-1 0 0 1 23.9243 22.5454)" fill="white"/>
<circle r="0.613278" transform="matrix(-1 0 0 1 26.3027 20.9822)" fill="white"/>
<circle r="0.613278" transform="matrix(-1 0 0 1 30.1084 19.7588)" fill="white"/>
<circle r="0.613278" transform="matrix(-1 0 0 1 33.9819 19.2832)" fill="white"/>
<circle r="0.613278" transform="matrix(-1 0 0 1 38.0596 19.7588)" fill="white"/>
<circle r="0.613278" transform="matrix(-1 0 0 1 44.6519 22.7493)" fill="white"/>
<circle r="0.613278" transform="matrix(-1 0 0 1 48.9336 27.6423)" fill="white"/>
<circle r="0.613278" transform="matrix(-1 0 0 1 51.1763 35.8657)" fill="white"/>
<circle r="0.613278" transform="matrix(-1 0 0 1 48.5942 45.1763)" fill="white"/>
<circle r="0.613278" transform="matrix(-1 0 0 1 38.4678 52.6521)" fill="white"/>
<circle r="0.613278" transform="matrix(-1 0 0 1 26.3672 51.157)" fill="white"/>
<circle r="0.613278" transform="matrix(-1 0 0 1 21.8818 48.0986)" fill="white"/>
<circle r="0.613278" transform="matrix(-1 0 0 1 19.9141 45.4482)" fill="white"/>
<circle r="0.613278" transform="matrix(-1 0 0 1 17.6035 35.7978)" fill="white"/>
<circle cx="50.9609" cy="39.6533" r="0.613278" fill="white"/>
<circle cx="50.9609" cy="42.375" r="0.613278" fill="white"/>
<circle cx="50.9609" cy="45.0967" r="0.613278" fill="white"/>
<circle cx="50.9609" cy="47.8184" r="0.613278" fill="white"/>
<circle cx="50.9609" cy="50.54" r="0.613278" fill="white"/>
<circle cx="50.9609" cy="53.2617" r="0.613278" fill="white"/>
<circle cx="50.9609" cy="55.9836" r="0.613278" fill="white"/>
<circle r="0.613278" transform="matrix(-1 0 0 1 17.3936 39.9929)" fill="white"/>
<circle r="0.613278" transform="matrix(-1 0 0 1 17.3936 42.7146)" fill="white"/>
<circle r="0.613278" transform="matrix(-1 0 0 1 17.3936 45.4363)" fill="white"/>
<circle r="0.613278" transform="matrix(-1 0 0 1 17.3936 48.158)" fill="white"/>
<circle r="0.613278" transform="matrix(-1 0 0 1 17.3936 50.8796)" fill="white"/>
<circle r="0.613278" transform="matrix(-1 0 0 1 17.3936 53.6013)" fill="white"/>
<circle r="0.613278" transform="matrix(-1 0 0 1 17.3936 56.3232)" fill="white"/>
<circle cx="55.0264" cy="20.0535" r="0.613278" fill="white"/>
<circle cx="55.0264" cy="22.7751" r="0.613278" fill="white"/>
<circle cx="55.0264" cy="25.4968" r="0.613278" fill="white"/>
<circle cx="55.0264" cy="28.2185" r="0.613278" fill="white"/>
<circle cx="55.0264" cy="30.9402" r="0.613278" fill="white"/>
<circle cx="55.0264" cy="33.6619" r="0.613278" fill="white"/>
<circle cx="55.0264" cy="36.3838" r="0.613278" fill="white"/>
<circle cx="55.0264" cy="39.1055" r="0.613278" fill="white"/>
<circle cx="55.0264" cy="41.8271" r="0.613278" fill="white"/>
<circle cx="55.0264" cy="44.5488" r="0.613278" fill="white"/>
<circle cx="55.0264" cy="47.2705" r="0.613278" fill="white"/>
<circle cx="55.0264" cy="49.9922" r="0.613278" fill="white"/>
<circle r="0.613278" transform="matrix(-1 0 0 1 13.2607 20.0535)" fill="white"/>
<circle r="0.613278" transform="matrix(-1 0 0 1 13.2607 22.7751)" fill="white"/>
<circle r="0.613278" transform="matrix(-1 0 0 1 13.2607 25.4968)" fill="white"/>
<circle r="0.613278" transform="matrix(-1 0 0 1 13.2607 28.2185)" fill="white"/>
<circle r="0.613278" transform="matrix(-1 0 0 1 13.2607 30.9402)" fill="white"/>
<circle r="0.613278" transform="matrix(-1 0 0 1 13.2607 33.6619)" fill="white"/>
<circle r="0.613278" transform="matrix(-1 0 0 1 13.2607 36.3838)" fill="white"/>
<circle r="0.613278" transform="matrix(-1 0 0 1 13.2607 39.1055)" fill="white"/>
<circle r="0.613278" transform="matrix(-1 0 0 1 13.2607 41.8271)" fill="white"/>
<circle r="0.613278" transform="matrix(-1 0 0 1 13.2607 44.5488)" fill="white"/>
<circle r="0.613278" transform="matrix(-1 0 0 1 13.2607 47.2705)" fill="white"/>
<circle r="0.613278" transform="matrix(-1 0 0 1 13.2607 49.9922)" fill="white"/>
<circle cx="59.1592" cy="26.3845" r="0.613278" fill="white"/>
<circle cx="59.1592" cy="29.1062" r="0.613278" fill="white"/>
<circle cx="59.1592" cy="31.8279" r="0.613278" fill="white"/>
<circle cx="59.1592" cy="34.5496" r="0.613278" fill="white"/>
<circle cx="59.1592" cy="37.2712" r="0.613278" fill="white"/>
<circle cx="59.1592" cy="39.9929" r="0.613278" fill="white"/>
<circle cx="59.1592" cy="42.7148" r="0.613278" fill="white"/>
<circle r="0.613278" transform="matrix(-1 0 0 1 9.12745 26.3845)" fill="white"/>
<circle r="0.613278" transform="matrix(-1 0 0 1 9.12745 29.1062)" fill="white"/>
<circle r="0.613278" transform="matrix(-1 0 0 1 9.12745 31.8279)" fill="white"/>
<circle r="0.613278" transform="matrix(-1 0 0 1 9.12745 34.5496)" fill="white"/>
<circle r="0.613278" transform="matrix(-1 0 0 1 9.12745 37.2712)" fill="white"/>
<circle r="0.613278" transform="matrix(-1 0 0 1 9.12745 39.9929)" fill="white"/>
<circle r="0.613278" transform="matrix(-1 0 0 1 9.12745 42.7148)" fill="white"/>
<circle cx="63.293" cy="25.2292" r="0.613278" fill="white"/>
<circle cx="63.293" cy="27.9509" r="0.613278" fill="white"/>
<circle cx="63.293" cy="30.6726" r="0.613278" fill="white"/>
<circle cx="63.293" cy="33.3943" r="0.613278" fill="white"/>
<circle cx="63.293" cy="36.116" r="0.613278" fill="white"/>
<circle cx="63.293" cy="38.8376" r="0.613278" fill="white"/>
<circle cx="63.293" cy="41.5596" r="0.613278" fill="white"/>
<circle cx="63.293" cy="44.2812" r="0.613278" fill="white"/>
<circle r="0.613278" transform="matrix(-1 0 0 1 4.99414 25.2292)" fill="white"/>
<circle r="0.613278" transform="matrix(-1 0 0 1 4.99414 27.9509)" fill="white"/>
<circle r="0.613278" transform="matrix(-1 0 0 1 4.99414 30.6726)" fill="white"/>
<circle r="0.613278" transform="matrix(-1 0 0 1 4.99414 33.3943)" fill="white"/>
<circle r="0.613278" transform="matrix(-1 0 0 1 4.99414 36.116)" fill="white"/>
<circle r="0.613278" transform="matrix(-1 0 0 1 4.99414 38.8376)" fill="white"/>
<circle r="0.613278" transform="matrix(-1 0 0 1 4.99414 41.5596)" fill="white"/>
<circle r="0.613278" transform="matrix(-1 0 0 1 4.99414 44.2812)" fill="white"/>
<circle cx="67.6738" cy="31.8279" r="0.613278" fill="white"/>
<circle cx="67.6738" cy="34.5496" r="0.613278" fill="white"/>
<circle cx="67.6738" cy="37.2712" r="0.613278" fill="white"/>
<circle r="0.613278" transform="matrix(-1 0 0 1 0.613285 31.8279)" fill="white"/>
<circle r="0.613278" transform="matrix(-1 0 0 1 0.613285 34.5496)" fill="white"/>
<circle r="0.613278" transform="matrix(-1 0 0 1 0.613285 37.2712)" fill="white"/>
</svg>
