<svg width="1240" height="235" viewBox="0 0 1240 235" fill="none" xmlns="http://www.w3.org/2000/svg">
<g opacity="0.4">
<path opacity="0.4" d="M214.19 117.879C139.124 118.105 65.3428 108.335 0.725137 89.6129C0.389595 89.5131 0.146731 89.3531 0.048228 89.1669C-0.050275 88.9807 0.00335906 88.783 0.197694 88.6159C0.295019 88.5327 0.425311 88.4598 0.580931 88.4015C0.736551 88.3433 0.914358 88.3009 1.10389 88.2768C1.29342 88.2527 1.49084 88.2475 1.68459 88.2613C1.87834 88.2752 2.06452 88.3078 2.23213 88.3574C207.71 147.105 416.879 102.038 619.23 58.4666C814.762 16.3536 1017 -27.1626 1216.19 22.6862C1216.36 22.7286 1216.51 22.7874 1216.64 22.859C1216.77 22.9307 1216.86 23.0139 1216.92 23.1039C1216.99 23.1939 1217.01 23.289 1217 23.3836C1216.98 23.4782 1216.93 23.5706 1216.84 23.6555C1216.76 23.7404 1216.64 23.816 1216.49 23.8782C1216.35 23.9403 1216.18 23.9878 1215.99 24.0178C1215.62 24.0784 1215.22 24.0643 1214.87 23.9786C1016.89 -25.501 815.515 17.9229 620.398 59.8882C487.03 88.5236 350.685 117.879 214.19 117.879Z" fill="#263238"/>
<path opacity="0.4" d="M214.455 147.013C141.63 147.235 69.9778 138.029 6.75088 120.327C6.41154 120.234 6.16148 120.078 6.05554 119.895C5.9496 119.712 5.99642 119.515 6.18575 119.349C6.38321 119.181 6.70701 119.058 7.08747 119.007C7.46794 118.955 7.87468 118.978 8.22021 119.072C211.667 175.396 418.88 130.772 619.577 87.6062C816.995 45.1598 1021.16 1.16322 1222.38 53.1878C1222.67 53.2923 1222.88 53.445 1222.96 53.6179C1223.04 53.7908 1222.99 53.9724 1222.83 54.1293C1222.66 54.2862 1222.38 54.408 1222.04 54.4723C1221.7 54.5366 1221.33 54.5392 1220.99 54.4796C1021.31 2.80571 817.861 46.5809 620.895 88.935C487.299 117.651 350.914 147.013 214.455 147.013Z" fill="#263238"/>
<path opacity="0.4" d="M214.01 176.146C143.31 176.366 73.6758 167.712 11.754 151.011C11.4118 150.915 11.1608 150.756 11.055 150.57C10.9493 150.383 10.9972 150.184 11.1884 150.015C11.2789 149.931 11.4033 149.856 11.5543 149.796C11.7052 149.737 11.8794 149.692 12.0663 149.666C12.2532 149.641 12.4489 149.634 12.6416 149.646C12.8342 149.658 13.0197 149.689 13.1869 149.738C215.066 203.718 420.603 159.5 619.39 116.741C818.856 73.8526 1025.11 29.4878 1228.23 83.8181C1228.57 83.9116 1228.82 84.0655 1228.94 84.2478C1229.05 84.4301 1229.01 84.6265 1228.84 84.7962C1228.74 84.88 1228.62 84.9543 1228.47 85.0146C1228.32 85.0748 1228.15 85.12 1227.96 85.1475C1227.78 85.1749 1227.58 85.1841 1227.39 85.1745C1227.2 85.1649 1227.01 85.1367 1226.84 85.0915C1024.96 31.1118 819.384 75.3105 620.596 118.07C487.116 146.785 350.582 176.146 214.01 176.146Z" fill="#263238"/>
<path opacity="0.4" d="M214.264 205.28C145.784 205.498 78.27 197.308 17.7996 181.45C17.4515 181.355 17.1907 181.198 17.0713 181.011C16.952 180.824 16.9833 180.621 17.1587 180.445C17.3499 180.273 17.6712 180.145 18.0525 180.089C18.4338 180.034 18.8442 180.054 19.1946 180.147C219.014 232.237 422.792 188.11 619.709 145.396C820.961 101.753 1029.11 56.6215 1234.25 113.771C1234.59 113.865 1234.84 114.021 1234.94 114.206C1235.05 114.391 1235 114.589 1234.81 114.757C1234.62 114.926 1234.29 115.049 1233.91 115.102C1233.53 115.154 1233.12 115.13 1232.78 115.036C1029.19 58.2586 821.602 103.241 620.991 146.661C487.413 175.683 350.857 205.28 214.264 205.28Z" fill="#263238"/>
<path opacity="0.4" d="M214.506 234.413C148.227 234.646 82.8111 226.984 23.7965 212.078C23.4514 211.987 23.1915 211.833 23.072 211.648C22.9525 211.464 22.9826 211.265 23.156 211.091C23.2437 211.005 23.3653 210.928 23.5136 210.866C23.662 210.803 23.8341 210.755 24.02 210.726C24.2059 210.697 24.4018 210.686 24.5963 210.694C24.7908 210.702 24.98 210.73 25.1528 210.775C223.096 260.639 424.506 216.88 619.624 174.554C822.615 130.497 1032.5 84.9137 1239.26 144.512C1239.43 144.561 1239.58 144.625 1239.7 144.702C1239.82 144.779 1239.9 144.867 1239.95 144.96C1240 145.054 1240.01 145.151 1239.98 145.247C1239.96 145.343 1239.89 145.435 1239.79 145.518C1239.69 145.601 1239.57 145.674 1239.42 145.733C1239.26 145.791 1239.09 145.834 1238.9 145.858C1238.72 145.882 1238.52 145.888 1238.33 145.874C1238.14 145.86 1237.96 145.828 1237.79 145.778C1032.31 86.4772 823.105 131.856 620.98 175.82C487.46 204.781 350.965 234.413 214.506 234.413Z" fill="#263238"/>
</g>
</svg>
